<?xml version="1.0"?><svg width="305" height="380" xmlns="http://www.w3.org/2000/svg">
 <metadata id="metadata7">image/svg+xml</metadata>
 <g>
  <title>Layer 1</title>
  <g id="layer1">
   <g fill="#33658A" id="g3822">
    <path opacity="0.545455" fill="#33658A" d="m50.441444,47.884323c21.913071,1.446732 44.374107,-6.865398 64.597366,14.793736c-11.428444,0.466339 -19.191162,-8.842567 -34.633797,2.328304c5.097458,44.312241 11.903893,31.584465 28.536736,54.933212c-49.732048,-3.145805 -33.768845,-63.864864 -58.500305,-72.055252z" id="rect2996"/>
    <path opacity="0.545455" fill="#33658A" id="path3767" d="m271.277435,49.311161c-21.913071,3.503143 -44.374115,-4.180695 -66.737625,9.799805c12.258011,2.440674 24.516022,-2.231548 36.774048,7.322231c-8.972336,44.686264 -12.118912,34.794815 -28.536743,54.93322c49.732071,-3.145805 33.768845,-63.864868 58.50032,-72.055256z"/>
    <path opacity="0.545455" fill="#33658A" d="m118.216187,43.603817c0.841675,-0.84087 69.306915,-9.416927 82.756516,14.981785c-27.347702,-8.573883 -54.695389,-6.781124 -82.043098,-2.140255c-2.192909,-4.102776 -2.620674,-8.366013 -0.713417,-12.84153z" id="rect3769"/>
    <path opacity="0.545455" fill="#33658A" id="path3772" d="m124.357277,25.517189c2.162704,0.194515 54.542671,0.807268 70.348701,18.043987c-27.347748,-8.573997 -42.287598,-9.843456 -69.635292,-5.202599c-5.05658,-4.280548 -2.485703,-8.560843 -0.713409,-12.841389l0,0z"/>
    <path opacity="0.545455" fill="#33658A" d="m156.098434,0.000006c9.96373,7.634654 15.185593,15.785435 15.401306,24.900875l-29.250153,0c1.078445,-9.663423 2.20108,-15.607688 13.848846,-24.900875z" id="rect3774"/>
    <path opacity="0.545455" fill="#33658A" d="m121.294975,70.716011l25.458046,23.834496l-21.402649,0l2.237457,-14.538597l-6.292854,-9.295898z" id="rect3777"/>
    <path opacity="0.545455" fill="#33658A" d="m151.586395,57.59911l4.146713,0c0.736359,5.297955 1.472961,10.325047 2.20932,10.841419c1.15509,0.809914 2.310181,-5.709431 3.465286,-10.841419l3.492249,0l0,14.388805c-2.774628,2.927063 -5.091812,6.615982 -13.313568,0.464157l0,-14.852962z" id="rect3782"/>
    <path opacity="0.545455" fill="#33658A" d="m140.999771,125.073898c-4.062729,22.069427 -6.453003,44.718643 10.630829,62.40239c18.185883,7.438705 36.37178,4.318237 54.557419,-2.993118c15.680435,-7.885162 31.268478,-12.69931 44.670944,-8.056961c0.713882,2.70372 1.810791,5.407181 -0.770828,8.110901c-19.03186,-2.404083 -31.256241,5.814926 -46.065491,11.855576c-21.06015,10.178375 -42.120285,10.521973 -63.180435,0.247696c-15.362617,-11.898529 -20.412201,-33.448074 -14.17379,-54.824326c-5.676529,1.165573 -17.012642,4.080032 -24.040421,2.593826c5.743118,-8.469696 24.953682,-25.035805 38.371773,-19.335983l0,0z" id="rect3785"/>
    <path opacity="0.545455" fill="#33658A" d="m194.516098,125.022743c2.669586,4.683372 3.843063,9.366753 2.24707,14.050148l-5.476318,4.85025c1.127853,9.472412 6.964157,12.463898 14.949448,15.604752l52.144165,-0.154251l5.558075,3.402405c5.688293,0.392303 11.434387,0.900223 16.665405,0.378052c3.044495,2.279221 2.37262,4.558441 1.709442,6.837677c-2.261414,3.104614 -4.969543,3.528885 -7.696259,3.841675c0.013519,3.598053 -2.13736,6.113907 -5.921661,7.813049c-1.894226,1.083115 -3.333008,0.344452 -4.762817,-0.43013c-0.738098,-3.694199 -1.47702,-7.388412 -1.751617,-11.082611l-55.044891,0.466965c-13.986633,-4.348038 -25.425629,-10.889282 -33.958542,-20.987274c-11.490555,-17.894791 8.155334,-31.573975 21.338501,-24.590706z" id="rect3788"/>
    <path opacity="0.545455" fill="#33658A" d="m75.199646,137.173965c12.997208,-0.326218 15.811249,4.387283 19.102287,10.595367c2.847458,5.371307 1.695847,8.773392 -0.961472,14.086258c3.583473,-2.474274 9.819473,-1.685638 12.163902,1.529343c3.762627,6.784973 2.849731,17.554276 -2.138435,26.331421c-6.542046,7.685165 -15.076256,8.949539 -19.626137,7.885696c1.113106,-4.590515 12.81897,-11.999832 8.218643,-22.149628c-3.587082,4.883087 -7.327415,6.696945 -10.761253,6.604446c-2.293976,-0.875504 -2.576424,-2.613098 -2.021294,-4.709641c3.434898,-4.191254 6.674339,-11.317352 5.08847,-17.023727c-1.3246,-4.766312 -6.091049,-10.759216 -10.977394,-9.98732c-4.798897,0.758072 -6.336357,7.879089 -7.232498,12.654129c-1.52256,8.11293 0.5616,16.32814 3.656853,24.492218c2.181145,5.98439 14.289986,10.392914 11.173439,16.149384c-1.808884,3.341125 -8.241364,1.174225 -11.393959,-0.306488c-19.311363,-11.967499 -30.597752,-63.804901 5.708847,-66.151459z" id="rect3791"/>
    <path opacity="0.545455" fill="#33658A" d="m216.915176,130.066498c2.247574,-1.849503 4.495148,-0.933624 6.742706,0c-0.350052,18.856827 -2.523468,20.228119 -17.163254,23.905945c3.473526,-5.728271 6.947037,-13.281296 10.420547,-23.905945z" id="rect3794"/>
    <path opacity="0.545455" fill="#33658A" d="m281.805725,206.867691c-4.377197,2.440384 -6.516052,1.299377 -8.567169,0.018051c-3.940338,-4.741928 -4.617126,-10.05455 -13.214142,-10.805023c-8.38063,-0.222382 -12.132584,3.316055 -14.935959,7.625198l18.506668,0.554367c0.617767,2.300308 2.863251,3.176361 -0.009369,8.530746l-33.185165,0.02684c-1.558762,-10.288574 10.6035,-20.351532 25.971878,-29.817474c10.150635,4.115051 23.434021,16.05452 25.433258,23.867294z" id="rect3797"/>
    <path opacity="0.545455" fill="#33658A" d="m10.999623,216.104691c15.903287,-15.662796 39.822371,-17.913773 63.036319,-8.31015c18.276779,6.429337 25.422523,11.902039 33.300095,21.524033l-39.41613,-11.959763c-14.372463,-4.52066 -34.632805,4.651337 -43.428387,13.400848c-7.763235,9.81218 -4.294765,32.551437 19.622826,54.679245c11.695179,7.275635 24.749317,9.7771 53.139019,13.575439l52.975716,1.120087c18.085968,2.266571 20.596878,10.590149 24.23024,18.477173c-5.607285,-3.89563 -8.458282,-9.261322 -22.792999,-8.50235l-55.447716,2.784729c-20.24649,-1.152344 -40.492996,-1.802124 -60.739498,-12.962494c-45.643892,-24.587982 -39.383147,-66.920197 -24.479484,-83.826797z" id="rect3800"/>
    <path opacity="0.545455" fill="#33658A" d="m168.0495,213.005249c3.140945,-0.851242 6.117569,-1.124908 10.343613,-3.629364c2.31073,5.469711 2.805801,9.321259 0.230362,12.959335c-17.223785,16.733292 -39.344589,28.860855 -59.885635,32.325058c13.775742,-11.782501 32.199341,-20.229523 49.311661,-41.655029z" id="rect3803"/>
    <path opacity="0.545455" fill="#33658A" id="path3806" d="m157.763565,253.107162c0,4.007523 -3.573608,7.256271 -7.981888,7.256271c-4.408295,0 -7.981903,-3.248749 -7.981903,-7.256271c0,-4.007538 3.573608,-7.256271 7.981903,-7.256271c4.408279,0 7.981888,3.248734 7.981888,7.256271z"/>
    <path opacity="0.545455" fill="#33658A" d="m117.999191,260.943939c22.214111,9.496521 36.929749,7.74942 62.984451,-3.192749c-20.451645,23.02713 -65.338936,24.318451 -62.984451,3.192749z" id="rect3808"/>
    <path opacity="0.545455" fill="#33658A" d="m204.49408,253.68779c13.686096,-19.350723 27.484573,-33.328751 47.108215,-36.878418c27.922058,-5.050613 52.673981,15.162811 50.996521,40.361435c-1.881744,28.266388 -15.575562,52.838501 -34.249634,73.724609c-8.933136,9.990356 -25.432083,13.266357 -34.421143,15.850708c6.870148,-7.808014 15.851227,-7.783051 25.466278,-22.452698c9.744659,-20.054596 26.760223,-45.555847 25.686523,-62.202362c-2.40683,-25.013596 -17.431305,-31.480972 -31.040009,-27.430145c-15.662201,4.662079 -29.08963,18.555435 -37.195267,29.341827c-11.553467,19.369934 -19.123016,58.080872 -15.161819,66.285889c7.210724,8.127625 17.526428,5.915314 24.869263,6.409698c-7.371292,6.631927 -27.860626,11.810669 -34.348236,2.344666c-14.564041,-21.251648 -0.177795,-63.982208 12.289307,-85.355209l0,0z" id="rect3811"/>
    <path opacity="0.545455" fill="#33658A" d="m100.003639,316.383057c48.308235,9.403564 51.962791,26.962219 58.630684,45.277435c-17.952667,-12.602173 -28.111435,-29.881165 -59.791695,-34.248383c-8.896812,-3.8703 -4.777596,-11.009094 1.161011,-11.029053l0,0z" id="rect3814"/>
    <path opacity="0.545455" fill="#33658A" d="m173.146866,342.504425l8.519318,-10.781769c8.490097,3.457123 7.740677,6.08194 5.198242,10.764954l-4.42952,4.080353l0.319397,16.4133l37.501434,-0.95929c8.176651,4.686981 5.911804,8.919983 -0.088211,12.99057l-50.503662,-1.161011c-6.165283,-11.495636 -0.815704,-21.346313 3.483002,-31.347107z" id="rect3817"/>
    <path opacity="0.545455" fill="#33658A" id="path3820" d="m191.501877,70.716011l-25.457809,23.834496l21.402481,0l-2.237534,-14.538597l6.292862,-9.295898z"/>
   </g>
  </g>
 </g>
</svg>