<?xml version="1.0" encoding="UTF-8" standalone="no"?>
<svg width="29px" height="56px" viewBox="0 0 29 56" version="1.1" xmlns="http://www.w3.org/2000/svg" xmlns:xlink="http://www.w3.org/1999/xlink">
    <!-- Generator: Sketch 40 (33762) - http://www.bohemiancoding.com/sketch -->
    <title>Hindu - Icon</title>
    <desc>Created with Sketch.</desc>
    <defs></defs>
    <g id="Welcome" stroke="none" stroke-width="1" fill="none" fill-rule="evenodd">
        <g id="Event-Details---v2" transform="translate(-497.000000, -1074.000000)" fill="#EBA51A">
            <g id="Hindu---Icon" transform="translate(497.000000, 1074.000000)">
                <g id="svg6167">
                    <g id="layer1" transform="translate(0.009357, 0.022821)">
                        <g id="g6228">
                            <rect id="rect4791" x="7.61847934" y="6.85370921" width="13.2428992" height="1.59711578"></rect>
                            <rect id="rect5301" x="9.81039764" y="4.62915559" width="8.85906201" height="1.59711578"></rect>
                            <rect id="rect5303" x="11.0400105" y="2.5436345" width="6.39983684" height="1.31904645"></rect>
                            <rect id="rect5305" x="13.2319288" y="0.041011809" width="2.01599904" height="1.87518498"></rect>
                            <rect id="rect5307" x="13.6061591" y="9.60005658" width="1.26753819" height="3.4045662"></rect>
                            <path d="M0.0542285338,11.830232 C1.78743598,10.7866189 3.62908047,9.57924259 5.95703221,9.54264719 C7.3755613,9.48088949 8.7940904,9.4841871 10.2126195,10.6613424 C11.5588666,11.9550049 11.8528672,14.050413 12.233774,16.0796041 C12.233774,16.0796041 12.6457397,19.2462273 13.2266233,20.6403864 C14.0907584,22.7143659 16.8129069,26.007841 16.8129069,26.007841 C18.4047725,28.4108369 18.8991379,29.8630954 18.8127189,32.8800088 C18.695887,35.9981911 16.2874317,36.7186041 14.3706616,38.1632888 C12.4876414,39.4300259 11.3204834,40.5876509 11.0752655,41.8505223 C10.6408357,44.2492133 14.0488283,47.0955249 13.6254287,47.5742826 C10.7571558,46.721468 8.62504339,44.770123 9.41192542,40.9750828 C10.3574334,36.6153231 17.6000592,36.325553 17.4584258,32.684389 C17.3675641,31.0155174 16.545064,28.9930134 15.4891761,27.418956 C14.2457632,25.6488243 13.4105836,24.2842844 12.2083385,22.3255865 C12.0253803,22.0275104 10.6156737,23.2010815 9.57491973,23.0332948 C9.82160775,22.1176099 11.2213524,21.0558671 11.1559707,20.5474597 C10.5398633,17.8119952 10.1510204,14.4851061 9.2430164,13.4533807 C7.3102972,11.36752 6.21348187,11.8691407 3.77567863,12.5048991 C4.50004918,14.7082685 6.26195115,17.2940889 5.80570392,19.1876894 L0.0542285338,11.830232 Z" id="rect5309"></path>
                            <path d="M27.9005976,13.9627098 C29.8779259,12.8219718 24.4006319,9.56862079 22.0726795,9.53114833 C20.6541504,9.46791163 19.2730643,9.71472728 17.8545352,10.9200935 C15.7819165,13.3375336 14.457733,17.2474405 15.1403584,20.7513573 C15.8921756,24.6282224 20.4522615,27.9770215 20.420933,31.7283234 C20.5985914,37.2958233 11.2897132,38.4778408 12.0221858,42.9361093 C12.4922444,46.2216493 14.8502205,45.7855589 15.5512806,44.4467411 C15.9710947,43.6450222 15.5206115,41.3599077 13.4696939,42.2615506 C13.7440861,40.947881 15.5073545,39.9621836 17.6777523,38.6905141 C19.4092458,37.5067891 22.2168786,34.6232623 22.3142635,32.2167651 C22.6890578,28.1683549 18.9711058,24.8594622 17.911083,22.3799357 C17.754121,22.0063524 18.6845777,22.2254486 19.257613,21.827815 C18.6823115,20.7551624 16.8697326,20.0881814 16.8274953,19.8281255 C16.5585327,17.1060678 17.4408603,14.3622508 18.4122667,13.3408491 C19.2350599,12.5083499 20.7904751,11.5820477 22.3035627,11.5814266 C23.4336701,11.9054041 23.9596534,12.1835209 25.1867013,13.3898714 C21.8512578,17.2951632 20.4649812,18.9182647 21.0289561,21.0568182 C21.5929305,23.1953717 22.9463538,16.8208567 27.9005976,13.9627098 L27.9005976,13.9627098 Z" id="path5313"></path>
                            <rect id="rect5080" transform="translate(14.239927, 50.023114) scale(1, -1) translate(-14.239927, -50.023114) " x="9.81039573" y="49.2245565" width="8.85906201" height="1.59711578"></rect>
                            <rect id="rect5082" transform="translate(14.239927, 52.039115) scale(1, -1) translate(-14.239927, -52.039115) " x="11.0400086" y="51.3795914" width="6.39983684" height="1.31904645"></rect>
                            <rect id="rect5084" transform="translate(14.239926, 54.055118) scale(1, -1) translate(-14.239926, -54.055118) " x="13.2319269" y="53.1175256" width="2.01599904" height="1.87518498"></rect>
                        </g>
                    </g>
                </g>
            </g>
        </g>
    </g>
</svg>