<?xml version="1.0" encoding="UTF-8" standalone="no"?>
<svg width="30px" height="44px" viewBox="0 0 30 44" version="1.1" xmlns="http://www.w3.org/2000/svg" xmlns:xlink="http://www.w3.org/1999/xlink">
    <g id="Welcome" stroke="none" stroke-width="1" fill="none" fill-rule="evenodd">
        <g id="Event-Details---v2---2" transform="translate(-497.000000, -1086.000000)" fill="#EBA51A">
            <g id="Layer-1" transform="translate(497.000000, 1086.000000)">
                <g id="layer1">
                    <path d="M7.75578794,43.8103393 C8.1759993,43.7162779 9.21503799,43.2895352 10.1823098,42.8137458 C11.112651,42.3560937 12.0948221,41.8805242 12.3648371,41.7569269 C12.6349063,41.6333267 12.8549793,41.4829518 12.853877,41.4227579 C12.8528274,41.3625639 12.674619,40.4268239 12.4579029,39.3433358 L12.0638696,37.3733599 L12.4250623,36.8011734 C12.9145214,36.0257164 13.7916138,35.0139894 13.912904,35.0849652 C13.9670955,35.116714 14.0126323,35.349095 14.0139957,35.6013664 C14.017615,36.2638795 14.398376,37.7977556 14.8087775,38.8031008 C16.2876993,42.4257017 19.7482771,44.1132021 23.1941666,42.892057 C24.5527436,42.4106054 25.6875754,41.3316317 26.424649,39.8206728 C27.2684287,38.0908759 27.5329362,36.1035422 27.1873261,34.090062 C27.0131563,33.075354 26.3753902,31.5790602 25.6083608,30.3855236 L24.9859648,29.417061 L25.3844046,28.5797083 C26.3592843,26.5309986 27.0838201,24.0927943 27.3013762,22.128826 C27.4218265,21.0413148 27.7333369,20.3962723 28.8198539,18.9847629 C29.2359739,18.4441924 29.6621105,17.759199 29.7667715,17.4625566 C30.1180488,16.4672194 29.9928241,14.8199225 29.3602517,12.1151314 C29.1280072,11.1219643 29.1229191,11.017665 29.2905832,10.6846067 C29.5852034,10.0994483 29.7656164,8.7293602 29.6931158,7.62734513 C29.6206665,6.52560917 29.3918331,5.77796486 29.0088689,5.39183389 C28.7756291,5.15670464 28.7694913,5.10246698 28.8998043,4.43253994 C29.0487928,3.66665409 28.9923438,3.23317406 28.7026036,2.91789543 C28.5677273,2.77114149 28.5182575,2.48084371 28.5159473,1.82346279 C28.5121711,0.744395233 28.2599904,0.301986473 27.5307857,0.0950621303 C26.9068182,-0.082009029 26.5122059,0.0942437209 25.7526804,0.889197184 C25.4155667,1.24202529 25.1002232,1.53070192 25.0519084,1.53070192 C25.0035908,1.53070192 24.8617896,1.40757861 24.7368272,1.25709378 C24.2600115,0.682961009 23.1660989,1.0345638 22.0376672,2.124657 C21.1699128,2.96288315 20.0121557,3.92462128 18.5138225,5.05182997 C17.2782642,5.9813489 16.7805695,6.4762778 16.4334877,7.12068216 C16.1316816,7.68104741 15.9180087,7.75859771 15.6303663,7.41221415 C15.1981418,6.89173117 14.1339739,6.60228857 13.8035227,6.91530935 C13.7272444,6.98754224 13.6648688,7.18911454 13.6648688,7.3632518 C13.6648688,8.02635237 13.1708448,9.94641222 12.7341098,10.9807908 C12.4838186,11.5735145 11.9154586,12.6667165 11.4710628,13.4101278 C9.97309607,15.9160328 9.65854112,16.7475563 9.5101829,18.5939163 C9.44922332,19.3527109 9.29635164,20.2932908 9.17044668,20.6840959 C8.74850407,21.9940329 8.46516336,23.1781469 8.17028084,24.8642082 C8.00922575,25.7850575 7.82855098,26.7131966 7.76874579,26.9267436 C7.6481386,27.3575039 7.22220879,27.785226 6.6333885,28.0668249 C6.26296285,28.2440031 6.22151883,28.2421529 5.68757248,28.024597 C4.96854481,27.7316137 4.13221486,27.7337724 3.29152977,28.0307845 C2.92766182,28.1593245 2.26602612,28.3809407 1.82115827,28.5232692 C1.37629079,28.6656006 0.791929766,28.859791 0.522490935,28.9548119 L0.0327167757,29.1275728 L0.441334112,29.5293968 C0.964735514,30.0440905 1.97859327,31.4813668 2.45535701,32.3845357 C3.62261051,34.5957328 4.62015243,37.7232791 5.74344388,42.6933236 C5.84694911,43.1513612 5.99473117,43.6014323 6.07179589,43.6934835 C6.28473444,43.9476767 6.93923523,43.9930969 7.75578794,43.8103393 L7.75578794,43.8103393 Z M18.9107407,37.5348736 C17.8122105,37.0107515 16.5918154,35.8583121 16.1164157,34.8962085 C15.5265452,33.7023777 15.5375629,33.6595587 16.611331,32.9713273 C19.6344893,31.0336799 22.1543414,27.1694809 23.0247712,23.1362272 C23.1535611,22.5395217 23.339011,21.7880926 23.4368498,21.4663872 C23.6053524,20.9124636 23.6313209,20.8852492 23.9261521,20.9528185 C24.0973842,20.9920626 24.5096738,21.1937113 24.842381,21.4009337 C25.175034,21.6081532 25.4740065,21.777699 25.506743,21.777699 C25.6567298,21.777699 25.5360684,21.4470421 25.206353,20.9545889 L24.8463654,20.4169509 L25.3319971,19.4830382 C25.5991257,18.9693853 26.0471408,18.1696463 26.3276516,17.7058394 C26.84827,16.8448585 27.1839691,15.8818654 27.1839691,15.2492923 C27.1839691,14.5987917 26.9800518,14.7663916 26.6636615,15.6768874 C26.2174831,16.9608391 24.4187599,20.1338614 24.1364153,20.1351007 C23.8407456,20.136397 23.93381,19.7308682 24.4813438,18.6325751 C25.0434633,17.5050131 27.7697982,10.5350842 27.9342623,9.80519589 C28.0575448,9.25793815 28.2048021,9.62894422 28.4514212,11.1079288 C28.5817854,11.8899289 28.7621985,12.8498682 28.8523793,13.2411273 C29.1494637,14.5306485 29.2754756,15.9810237 29.1629485,16.8147458 C29.0736061,17.4761553 28.9853675,17.6883246 28.5940095,18.1827866 C27.3952277,19.6973719 26.9889703,20.6327464 26.7724666,22.3768059 C26.6826537,23.1006865 26.5027112,24.0623247 26.3726093,24.5137806 C25.8032512,26.4896957 24.4838108,29.2943745 23.6951653,30.2051302 C22.8899975,31.1349139 22.6473143,31.6653892 22.5865644,32.6279297 C22.5384065,33.3918482 22.5625382,33.514015 22.865709,34.0416435 C23.4598263,35.0755282 23.2548623,36.5629303 22.4115019,37.3381532 C21.8532669,37.8512508 21.4573969,37.9742113 20.4706623,37.9409692 C19.8642681,37.920539 19.5447291,37.8373594 18.9107407,37.5348735 L18.9107407,37.5348736 Z M11.5158124,35.2882214 C10.9860101,33.5430626 9.45415463,31.0885914 7.94900126,29.5731552 C7.47029598,29.0911554 7.07862355,28.668807 7.07862355,28.6345998 C7.07862355,28.6003925 7.31433047,28.4415543 7.60244495,28.2816253 C8.21665612,27.9406891 8.46516332,27.5461063 8.46516332,26.9117642 C8.46516332,26.3490661 8.85368776,24.1845228 9.14117262,23.1457412 C9.25774121,22.7243837 9.54979014,21.9150335 9.79011322,21.34719 C10.1978908,20.383613 10.2309411,20.219351 10.2854478,18.8847166 C10.3647164,16.9439925 10.6592838,16.1774841 12.4295743,13.305273 C12.7231976,12.8289054 13.1154469,12.0409134 13.301316,11.5541808 C13.6849619,10.5495394 14.127049,8.65064707 14.127049,8.0075683 C14.127049,7.24596195 14.5735953,7.18338376 15.3863183,7.8311025 C15.8369047,8.19022026 15.832183,8.24538088 15.2171326,9.8156065 C14.7455618,11.0195723 13.7127657,13.0247563 12.9815674,14.1560802 C12.7146455,14.5690159 12.5162399,14.9257709 12.540634,14.9488722 C12.6520075,15.0543722 13.5858112,14.1485549 14.0504556,13.4842801 C14.9129122,12.2512923 15.3565209,11.3876831 15.8617708,9.95783074 C16.7203971,7.52814759 17.1413415,6.99116131 19.9047681,4.80057141 C20.6354416,4.22134643 21.7656045,3.27329334 22.4162764,2.69379034 C23.0668969,2.11428593 23.680477,1.64014587 23.779682,1.64014587 C24.084005,1.64014587 24.6419262,1.96436965 24.6419262,2.14119272 C24.6419262,2.59000499 23.2875988,4.19988623 21.3805953,6.01787465 C19.1266697,8.16660778 18.4915789,9.0247019 17.5434548,11.2023556 C16.9521682,12.5604241 16.3010771,13.6454112 15.5608547,14.5061622 C15.0310011,15.1223256 15.083671,15.2612762 15.7275762,14.9459012 C16.3346521,14.6485563 17.020472,13.797909 17.6133843,12.6068609 C19.661245,8.49333647 20.006279,7.99951618 22.2127812,6.02412434 C23.6631134,4.72566234 23.9810781,4.37282567 24.9413208,2.99592684 C26.1353282,1.28379037 26.6761481,0.764599428 27.2654397,0.764599428 C27.7613532,0.764599428 27.9953261,1.10903419 28.0766939,1.95879353 C28.1390182,2.60987264 28.1374952,2.61398401 27.8061,2.68167793 C26.5551731,2.93723055 26.1792393,3.24991651 25.1736708,4.87124027 C24.5515886,5.87417559 23.9321844,6.66483387 22.6305783,8.11740273 C20.8976419,10.0512497 20.4806306,10.815094 19.3880286,14.0563224 C18.7076649,16.0745811 18.6919269,16.1329747 18.8535061,16.0383865 C19.086957,15.9017073 19.7507429,14.6203653 20.4443275,12.9675191 C21.280763,10.9741292 21.9000103,10.0268392 23.4133485,8.42562645 C24.5288201,7.24532445 24.9188148,6.7336153 25.8518313,5.22595501 C26.5619925,4.0784183 26.9409181,3.7030735 27.5960992,3.49827176 C28.2016563,3.30898893 28.3040585,3.4491024 28.1377577,4.23942943 C27.9386176,5.18592851 27.8258252,6.89342071 27.9624356,6.89342071 C28.0257011,6.89342071 28.181144,6.63486032 28.3079402,6.31884356 C28.4346851,6.00282609 28.6094339,5.7442664 28.6962037,5.7442664 C28.9782859,5.7442664 29.1593265,6.84317695 29.1108549,8.26146075 C29.0611198,9.7167579 28.9838475,10.0370056 28.730409,9.83778112 C28.6424842,9.76867988 28.5705597,9.65193257 28.5705597,9.57833986 C28.5705597,9.50474996 28.4665831,9.35540016 28.3394703,9.24644945 C28.1803568,9.1100401 28.1081699,8.90880832 28.1077506,8.6001884 C28.1068065,7.9621622 27.9035196,7.35218999 27.6487178,7.22303826 C27.2900963,7.04125289 26.7809119,7.09643569 26.3633772,7.3623315 C25.7818491,7.73265085 24.2766423,10.2716281 23.4198513,12.3275319 C23.1728158,12.9202998 22.5407654,14.2343257 22.0153183,15.2475903 C21.4898712,16.260855 21.0599555,17.1361669 21.0599555,17.1927303 C21.0599555,17.4132358 21.6153583,16.9332448 22.1782108,16.2263864 C22.9174864,15.297869 23.4911997,14.2166596 23.8797769,13.0195252 C24.0453419,12.5093715 24.4015505,11.7195505 24.6713572,11.2643654 C24.941164,10.8091818 25.4738497,9.91116255 25.8551882,9.26876979 C26.5634613,8.07552229 26.8182118,7.87332319 27.0643574,8.30898688 C27.2566267,8.64927565 27.2127157,8.95769927 26.6628744,11.1287999 C26.2309138,12.8343505 25.9221814,13.7107233 24.8586438,16.2508155 C23.1408122,20.3534802 22.7431083,21.4239306 22.2051233,23.3932498 C21.7049088,25.2241638 21.5058201,25.7558526 20.8742959,26.9468708 C19.6021222,29.3462364 17.5020108,31.6478058 15.5399759,32.7928298 C15.0488383,33.0794398 14.430535,33.4786883 14.1659747,33.6800458 C13.7006472,34.0341795 12.4598966,35.4684776 12.1724111,35.9846076 C12.0949264,36.1237038 11.9748967,36.2196269 11.9057003,36.1977777 C11.8365052,36.1759313 11.6610235,35.7666291 11.5158126,35.2882213 L11.5158124,35.2882214 Z" id="path2355"></path>
                </g>
            </g>
        </g>
    </g>
</svg>