<?xml version="1.0" encoding="UTF-8" standalone="no"?>
<svg width="300px" height="85px" viewBox="0 0 300 85" version="1.1" xmlns="http://www.w3.org/2000/svg" xmlns:xlink="http://www.w3.org/1999/xlink">
    <!-- Generator: Sketch 40 (33762) - http://www.bohemiancoding.com/sketch -->
    <title>Royal Ambassador Logo</title>
    <desc>Created with Sketch.</desc>
    <defs></defs>
    <g id="Welcome" stroke="none" stroke-width="1" fill="none" fill-rule="evenodd">
        <g id="Event-Details---v2---2" transform="translate(-362.000000, -503.000000)">
            <g id="Royal-Ambassador-Logo" transform="translate(362.000000, 502.785714)">
                <g id="Layer_1">
                    <path d="M210.084034,50.5882353 C209.915966,50.5882353 210,50.6722689 209.327731,51.9327731 C208.487395,53.4453782 206.890756,54.8739496 205.294118,55.210084 C205.12605,55.210084 204.957983,55.2941176 204.789916,55.2941176 C205.546218,53.8655462 207.563025,49.4117647 206.806723,46.2184874 C206.554622,45.210084 205.966387,44.3697479 205.12605,44.6218487 C203.781513,44.9579832 203.697479,45.7983193 204.201681,47.8151261 C205.882353,54.9579832 199.159664,60.5882353 196.97479,60.5882353 C194.285714,60.5882353 197.478992,50.8403361 198.235294,48.6554622 C202.857143,41.4285714 210.420168,34.7058824 209.495798,30.1680672 C209.159664,28.6554622 207.815126,27.7310924 206.218487,28.1512605 C200.336134,29.7478992 199.07563,40.8403361 195.378151,48.0672269 C192.268908,54.0336134 188.823529,60.5042017 187.058824,60.5042017 C186.638655,60.5042017 186.638655,60.4201681 186.554622,60.2521008 C186.386555,60.0840336 186.386555,59.9159664 186.386555,59.5798319 C186.386555,59.1596639 186.638655,58.0672269 187.226891,56.2184874 L188.571429,51.7647059 C189.07563,50.0840336 189.327731,49.0756303 189.411765,48.7394958 C189.495798,48.4033613 189.495798,47.9831933 189.495798,47.394958 C189.495798,46.5546218 189.243697,45.8823529 188.739496,45.2941176 C188.235294,44.789916 187.647059,44.5378151 186.890756,44.5378151 C185.882353,44.5378151 184.87395,45.0420168 183.613445,46.1344538 C182.436975,47.1428571 181.260504,48.8235294 180.252101,51.092437 C180.756303,49.5798319 181.092437,48.2352941 181.092437,47.1428571 C181.092437,46.302521 180.92437,45.6302521 180.504202,45.1260504 C180.168067,44.7058824 179.579832,44.4537815 178.823529,44.4537815 C177.731092,44.4537815 176.554622,45.1260504 175.210084,46.4705882 C173.865546,47.8151261 172.773109,49.4117647 171.932773,51.2605042 C172.773109,48.9915966 173.109244,47.3109244 173.109244,46.3865546 C173.109244,45.7983193 172.941176,45.3781513 172.689076,45.0420168 C172.352941,44.7058824 172.016807,44.5378151 171.512605,44.5378151 C168.739496,44.5378151 165.294118,56.4705882 156.638655,56.8067227 C157.89916,54.2016807 163.277311,43.0252101 167.815126,35.6302521 C173.193277,26.8907563 176.890756,23.3613445 176.890756,23.0252101 C176.890756,22.7731092 176.806723,22.605042 176.638655,22.605042 C174.117647,22.605042 165.462185,27.5630252 153.865546,40.2521008 C151.764706,35.9663866 147.394958,32.5210084 142.268908,32.5210084 C138.319328,32.5210084 133.865546,35.4621849 133.865546,41.3445378 C133.865546,46.4705882 136.890756,50.3361345 140.756303,53.3613445 C134.705882,58.487395 128.991597,60.6722689 121.512605,60.6722689 C115.210084,60.6722689 108.655462,56.8067227 108.655462,51.4285714 C108.655462,44.5378151 116.05042,39.7478992 122.352941,39.7478992 C127.983193,39.7478992 130.840336,42.4369748 130.840336,46.1344538 C130.840336,51.3445378 125.714286,54.6218487 120,54.6218487 C119.07563,54.6218487 118.571429,54.4537815 118.319328,54.4537815 C118.067227,54.4537815 117.983193,54.5378151 117.983193,54.789916 C117.983193,55.210084 118.235294,55.2941176 120.504202,55.2941176 C125.714286,55.2941176 131.680672,51.8487395 131.680672,46.0504202 C131.680672,41.6806723 127.983193,37.6470588 121.260504,37.6470588 C115.462185,37.6470588 107.142857,42.2689076 107.142857,50.4201681 C107.142857,57.0588235 113.697479,61.5966387 121.344538,61.5966387 C129.579832,61.5966387 136.470588,58.487395 141.512605,54.1176471 C144.705882,56.4705882 148.571429,57.1428571 152.605042,57.6470588 L151.008403,61.2605042 L154.957983,61.2605042 C154.957983,61.2605042 155.546218,59.3277311 156.218487,57.7310924 C166.470588,56.5546218 169.243697,45.7142857 171.008403,45.7142857 C172.521008,45.7142857 166.134454,61.092437 166.134454,61.092437 L169.159664,61.092437 L169.747899,59.1596639 C171.260504,54.0336134 172.857143,50.4201681 174.453782,48.487395 C176.05042,46.5546218 177.310924,45.5462185 178.235294,45.5462185 C178.571429,45.5462185 178.823529,45.6302521 178.907563,45.8823529 C179.07563,46.0504202 179.159664,46.3865546 179.159664,46.8067227 C179.159664,47.4789916 178.907563,48.6554622 178.319328,50.5042017 L175.12605,61.092437 L177.478992,61.092437 L177.983193,59.4117647 C179.663866,53.9495798 181.176471,50.2521008 182.605042,48.3193277 C184.033613,46.4705882 185.294118,45.4621849 186.386555,45.4621849 C186.722689,45.4621849 186.97479,45.5462185 187.142857,45.7983193 C187.310924,46.0504202 187.394958,46.302521 187.394958,46.8067227 C187.394958,47.2268908 187.142857,48.2352941 186.638655,49.8319328 L185.042017,55.210084 C184.453782,57.0588235 184.201681,58.4033613 184.201681,59.0756303 C184.201681,59.8319328 184.453782,60.4201681 184.87395,60.8403361 C185.294118,61.2605042 185.798319,61.4285714 186.386555,61.4285714 C190.504202,61.4285714 195.882353,47.7310924 196.134454,47.7310924 C196.386555,47.8151261 192.521008,54.5378151 193.361345,58.3193277 C193.865546,60.4201681 194.957983,61.2605042 197.310924,61.2605042 C200.420168,61.1764706 203.445378,57.2268908 204.453782,55.7142857 C204.537815,55.7142857 204.705882,55.7142857 205.042017,55.6302521 C206.890756,55.210084 208.823529,53.8655462 209.915966,51.7647059 C210.336134,51.0084034 210.588235,50.6722689 210.504202,50.5042017 C210.420168,50.5882353 210.252101,50.5042017 210.084034,50.5882353 L210.084034,50.5882353 Z M200.168067,41.5966387 C201.512605,36.5546218 202.016807,30 206.386555,28.9915966 C207.058824,28.8235294 207.983193,29.1596639 208.319328,30 C209.243697,32.2689076 206.05042,36.6386555 203.865546,39.6638655 L198.739496,46.8067227 L198.655462,46.8067227 L200.168067,41.5966387 L200.168067,41.5966387 Z M135.798319,42.605042 C135.798319,36.9747899 139.831933,34.4537815 143.697479,34.4537815 C148.235294,34.4537815 151.008403,37.6470588 152.941176,41.3445378 C148.991597,45.3781513 145.714286,49.3277311 141.428571,52.9411765 C138.571429,50.5882353 135.798319,47.5630252 135.798319,42.605042 L135.798319,42.605042 Z M152.857143,56.8907563 C149.327731,56.4705882 145.462185,55.9663866 142.352941,53.5294118 C146.470588,50 149.327731,46.3865546 153.193277,42.5210084 C153.865546,44.1176471 154.453782,46.302521 154.453782,48.5714286 C154.453782,51.6806723 153.865546,54.1176471 152.857143,56.8907563 L152.857143,56.8907563 Z M154.789916,53.4453782 L154.957983,53.1092437 C155.210084,51.512605 155.462185,49.8319328 155.462185,48.0672269 C155.462185,45.8823529 155.294118,43.5294118 154.369748,41.3445378 C162.773109,32.3529412 171.848739,24.789916 174.453782,24.4537815 L174.537815,24.5378151 C166.05042,32.7731092 159.411765,42.7731092 154.789916,53.4453782 L154.789916,53.4453782 Z" id="Shape" fill="#383838"></path>
                    <path d="M47.1428571,56.1344538 C47.1428571,54.5378151 47.4789916,52.8571429 48.2352941,51.0084034 C48.9915966,49.1596639 50,47.6470588 51.4285714,46.4705882 C52.7731092,45.2941176 54.1176471,44.7058824 55.3781513,44.7058824 C56.5546218,44.7058824 57.4789916,45.210084 58.2352941,46.2184874 C58.9915966,47.2268908 59.3277311,48.5714286 59.3277311,50.2521008 C59.3277311,52.2689076 58.907563,54.2857143 58.0672269,56.0504202 C57.2268908,57.8991597 56.1344538,59.3277311 54.8739496,60.2521008 C53.6134454,61.2605042 52.3529412,61.7647059 51.092437,61.7647059 C50,61.7647059 49.0756303,61.3445378 48.2352941,60.5042017 C47.5630252,59.6638655 47.1428571,58.1512605 47.1428571,56.1344538 M49.2436975,58.4033613 C49.2436975,59.0756303 49.4117647,59.7478992 49.8319328,60.2521008 C50.1680672,60.7563025 50.6722689,60.8403361 51.3445378,60.8403361 C53.1092437,60.8403361 54.6218487,59.3277311 55.7142857,55.9663866 C56.8907563,52.605042 57.394958,50.0840336 57.394958,48.3193277 C57.394958,47.394958 57.2268908,46.7226891 56.8907563,46.302521 C56.5546218,45.8823529 56.0504202,45.6302521 55.2941176,45.6302521 C53.6134454,45.6302521 52.2689076,47.1428571 51.0084034,50.2521008 C49.9159664,53.2773109 49.2436975,56.0504202 49.2436975,58.4033613" id="Shape" fill="#383838"></path>
                    <path d="M58.7394958,50.3361345 L58.1512605,49.5798319 C58.3193277,47.7310924 61.2605042,44.4537815 64.5378151,44.5378151 C70.6722689,44.8739496 68.487395,57.8151261 67.8151261,60.5042017 C69.0756303,59.0756303 70.3361345,57.3109244 71.5966387,55.1260504 C72.8571429,52.9411765 73.4453782,51.092437 73.4453782,49.5798319 C73.4453782,48.8235294 73.1932773,48.1512605 72.7731092,47.394958 C72.3529412,46.7226891 72.1008403,46.1344538 72.1008403,45.7983193 C72.1008403,45.4621849 72.1848739,45.1260504 72.4369748,44.8739496 C72.605042,44.6218487 72.8571429,44.4537815 73.1932773,44.4537815 C73.697479,44.4537815 74.0336134,44.7058824 74.3697479,45.2941176 C74.7058824,45.7983193 74.789916,46.6386555 74.789916,47.6470588 C74.789916,49.2436975 74.2857143,51.1764706 73.3613445,53.4453782 C72.4369748,55.7142857 71.0084034,57.9831933 69.0756303,60.1680672 C67.2268908,62.3529412 65.3781513,64.3697479 63.5294118,66.2184874 C61.6806723,67.9831933 60.0840336,69.2436975 58.7394958,70 C57.394958,70.6722689 56.1344538,71.092437 54.789916,71.092437 C53.1092437,71.092437 52.2689076,70.5882353 52.2689076,69.6638655 C52.2689076,69.2436975 52.4369748,68.9915966 52.7731092,68.7394958 C53.1092437,68.487395 53.5294118,68.4033613 53.8655462,68.4033613 C54.2016807,68.4033613 54.6218487,68.487395 55.2941176,68.6554622 C56.1344538,68.907563 56.8067227,68.9915966 57.394958,68.9915966 C58.1512605,68.9915966 58.9915966,68.7394958 59.7478992,68.3193277 C60.5042017,67.8991597 61.4285714,67.1428571 62.5210084,66.0504202 C63.6134454,64.9579832 64.4537815,64.0336134 64.8739496,63.1932773 C65.2941176,62.3529412 68.9915966,46.6386555 63.697479,46.2184874 C61.6806723,46.0504202 58.9915966,47.8991597 58.7394958,50.3361345" id="Shape" fill="#383838"></path>
                    <path d="M40.3361345,60.3361345 C36.1344538,60.5042017 39.4117647,53.0252101 40,50.3361345 C41.1764706,45.4621849 38.3193277,44.0336134 35.8823529,43.3613445 L35.8823529,43.2773109 C39.1596639,42.9411765 47.7310924,39.3277311 47.7310924,32.8571429 C47.7310924,28.9915966 45.0420168,26.2184874 42.605042,25.1260504 C44.2857143,23.8655462 45.4621849,23.697479 45.4621849,23.5294118 C45.4621849,23.3613445 45.3781513,23.2773109 45.210084,23.1932773 C44.7058824,23.1932773 42.2689076,24.4537815 41.6806723,24.7058824 C39.4957983,23.7815126 35.4621849,22.9411765 32.0168067,22.9411765 C29.6638655,22.9411765 27.2268908,23.1932773 24.8739496,23.697479 C23.3613445,22.1848739 19.9159664,21.3445378 17.3109244,21.3445378 C6.05042017,21.3445378 0.336134454,33.6134454 0.336134454,34.7058824 C0.336134454,34.9579832 0.420168067,35.210084 0.504201681,35.210084 C0.924369748,35.210084 0.924369748,34.3697479 1.51260504,33.1932773 C5.21008403,25.9663866 11.1764706,22.0168067 17.3109244,22.0168067 C19.3277311,22.0168067 21.8487395,22.6890756 23.4453782,24.0336134 C14.9579832,25.5462185 4.45378151,33.0252101 4.78991597,42.0168067 C4.95798319,45.7983193 7.14285714,48.2352941 11.3445378,48.4033613 C20.5882353,48.4033613 27.8991597,39.4117647 27.7310924,31.512605 C27.6470588,28.9915966 26.9747899,26.2184874 25.9663866,24.789916 C27.9831933,24.2857143 29.5798319,24.2857143 31.6806723,24.2857143 C34.8739496,24.2857143 38.0672269,24.6218487 40.2521008,25.7983193 C32.8571429,31.7647059 29.8319328,36.8067227 26.2184874,43.8655462 C21.0084034,54.0336134 17.2268908,61.3445378 7.64705882,61.3445378 C6.38655462,61.3445378 5.12605042,60.5882353 5.12605042,59.2436975 C5.12605042,58.487395 5.79831933,58.1512605 5.79831933,57.1428571 C5.79831933,55.8823529 4.87394958,55.1260504 3.69747899,55.1260504 C2.01680672,55.1260504 1.2605042,56.302521 1.2605042,57.8991597 C1.2605042,59.3277311 3.27731092,62.0168067 7.81512605,62.0168067 C20,62.0168067 28.4033613,47.8151261 33.1932773,37.7310924 C35.2941176,33.2773109 37.4789916,29.5798319 41.1764706,26.4705882 C43.1932773,27.7310924 44.9579832,29.6638655 44.9579832,32.1008403 C44.9579832,38.2352941 38.6554622,42.8571429 35.5462185,42.8571429 C35.0420168,42.8571429 34.0336134,42.1848739 33.3613445,42.1848739 C32.3529412,42.1848739 31.6806723,42.7731092 31.6806723,43.1092437 C31.6806723,43.5294118 32.4369748,44.0336134 33.5294118,44.0336134 C33.9495798,44.0336134 34.789916,43.697479 35.2941176,43.7815126 C36.7226891,44.0336134 37.394958,45.5462185 37.4789916,46.4705882 C37.9831933,50.5042017 35.8823529,54.2016807 35.6302521,56.5546218 C35.3781513,58.907563 35.7983193,62.1848739 39.9159664,62.1008403 C45.6302521,61.512605 47.8991597,53.2773109 47.8991597,53.7815126 L47.8991597,52.1008403 C47.8991597,52.1848739 44.4537815,60.1680672 40.3361345,60.3361345 M25.4621849,32.2689076 C24.9579832,41.0084034 17.3109244,47.6470588 10.8403361,47.3109244 C8.1512605,47.2268908 6.13445378,45.6302521 5.88235294,42.1008403 C5.46218487,34.3697479 15.9663866,25.8823529 23.9495798,24.9579832 C25.1260504,26.2184874 25.6302521,30 25.4621849,32.2689076" id="Shape" fill="#383838"></path>
                    <path d="M99.4117647,55.5462185 C99.2436975,55.5462185 97.4789916,60.5042017 95.1260504,60.5042017 C91.9327731,60.5042017 95.5462185,52.605042 98.3193277,48.487395 C101.092437,44.3697479 108.823529,33.6134454 108.319328,30.3361345 C108.067227,28.487395 106.722689,28.2352941 105.714286,28.487395 C100.672269,29.7478992 96.302521,44.9579832 94.9579832,47.8151261 C92.6890756,52.6890756 87.8991597,60.3361345 86.5546218,60.3361345 C86.302521,60.3361345 86.1344538,60.2521008 86.0504202,60.1680672 C85.9663866,60 85.8823529,59.8319328 85.8823529,59.5798319 C85.8823529,59.2436975 86.1344538,58.2352941 86.7226891,56.5546218 L90.4201681,44.9579832 L87.9831933,44.9579832 L87.4789916,46.6386555 C87.3109244,45.9663866 87.0588235,45.4621849 86.6386555,45.1260504 C86.2184874,44.789916 85.7142857,44.6218487 84.9579832,44.6218487 C83.7815126,44.6218487 82.3529412,45.2941176 80.6722689,46.6386555 C78.9915966,47.9831933 77.6470588,49.7478992 76.6386555,51.7647059 C75.6302521,53.7815126 75.0420168,55.7142857 75.0420168,57.4789916 C75.0420168,58.8235294 75.3781513,59.8319328 76.0504202,60.6722689 C76.7226891,61.4285714 77.4789916,61.8487395 78.4033613,61.8487395 C79.4117647,61.8487395 80.4201681,61.3445378 81.5966387,60.3361345 C82.6890756,59.3277311 83.6134454,58.3193277 84.2016807,57.3109244 C83.9495798,58.1512605 83.7815126,58.907563 83.7815126,59.4117647 C83.7815126,60.0840336 83.9495798,60.6722689 84.2857143,61.092437 C84.6218487,61.512605 85.1260504,61.7647059 85.7142857,61.7647059 C88.6554622,61.7647059 94.8739496,49.4117647 94.8739496,49.4117647 C92.9411765,55.3781513 91.6806723,57.0588235 92.3529412,59.8319328 C92.3529412,59.9159664 92.5210084,60.3361345 92.7731092,60.7563025 C93.1092437,61.2605042 93.697479,61.7647059 94.4537815,61.7647059 C97.8151261,61.7647059 99.6638655,55.9663866 99.6638655,55.7142857 C99.6638655,55.5462185 99.5798319,55.5462185 99.4117647,55.5462185 M99.4957983,40 C100.672269,35.7983193 103.277311,30.3361345 105.546218,29.7478992 C106.386555,29.4957983 107.142857,29.9159664 107.310924,30.7563025 C107.563025,32.7731092 103.613445,38.8235294 101.680672,41.9327731 L97.0588235,48.7394958 L96.9747899,48.7394958 C96.9747899,48.6554622 98.3193277,44.2016807 99.4957983,40 M85.5462185,52.9411765 C84.6218487,55.5462185 83.6134454,57.4789916 82.3529412,58.8235294 C81.092437,60.0840336 80.0840336,60.7563025 79.1596639,60.7563025 C78.6554622,60.7563025 78.2352941,60.5042017 77.9831933,60.0840336 C77.7310924,59.6638655 77.5630252,58.9915966 77.5630252,58.1512605 C77.5630252,56.1344538 78.4033613,53.5294118 80.1680672,50.4201681 C81.9327731,47.2268908 83.6134454,45.6302521 85.210084,45.6302521 C85.7142857,45.6302521 86.1344538,45.7983193 86.4705882,46.2184874 C86.7226891,46.6386555 86.8907563,47.0588235 86.8907563,47.6470588 C86.8907563,48.5714286 86.4705882,50.3361345 85.5462185,52.9411765" id="Shape" fill="#383838"></path>
                    <path d="M242.605042,45.3781513 C241.932773,44.8739496 241.176471,44.7058824 240.168067,44.7058824 C238.907563,44.7058824 237.731092,45.1260504 236.722689,45.9663866 C235.714286,46.8067227 235.210084,47.8991597 235.210084,49.1596639 C235.210084,50.1680672 235.798319,51.6806723 236.97479,53.8655462 C237.983193,55.7142857 238.487395,57.0588235 238.487395,57.8991597 C238.487395,58.907563 238.151261,59.6638655 237.394958,60.2521008 C236.638655,60.8403361 236.05042,61.092437 234.957983,61.092437 C232.436975,61.092437 232.605042,57.6470588 229.07563,51.4285714 C228.067227,49.5798319 227.731092,48.6554622 227.731092,47.7310924 C227.731092,47.0588235 227.983193,46.5546218 228.571429,46.1344538 C229.159664,45.7142857 229.747899,45.5462185 230.504202,45.5462185 C231.428571,45.5462185 232.016807,45.9663866 232.184874,46.8067227 C232.352941,47.5630252 232.689076,47.9831933 233.109244,47.9831933 C233.697479,47.9831933 233.94958,47.6470588 233.94958,46.9747899 C233.94958,46.4705882 233.613445,45.9663866 232.941176,45.4621849 C232.268908,44.9579832 231.512605,44.789916 230.504202,44.789916 C229.243697,44.789916 228.067227,45.210084 227.058824,46.0504202 C226.05042,46.8907563 225.546218,47.9831933 225.546218,49.2436975 C225.546218,50.2521008 226.134454,51.7647059 227.310924,53.9495798 C228.319328,55.7983193 228.823529,57.1428571 228.823529,57.9831933 C228.823529,58.9915966 228.487395,59.7478992 227.731092,60.3361345 C226.97479,60.9243697 226.218487,61.1764706 225.294118,61.1764706 C224.705882,61.1764706 224.201681,61.092437 223.865546,60.8403361 C223.445378,60.5882353 223.277311,60.3361345 223.277311,60 C223.277311,59.9159664 223.277311,59.8319328 223.361345,59.6638655 C223.445378,59.3277311 223.445378,59.0756303 223.445378,58.907563 C223.445378,58.1512605 223.109244,57.8151261 222.352941,57.8151261 C222.016807,57.8151261 221.764706,57.9831933 221.596639,58.2352941 C221.428571,58.487395 221.260504,58.8235294 221.260504,59.1596639 C221.260504,59.8319328 221.596639,60.5042017 222.268908,61.092437 C222.941176,61.6806723 223.94958,62.0168067 225.294118,62.0168067 C227.142857,62.0168067 228.487395,61.512605 229.411765,60.5042017 C229.747899,60.1680672 230,59.7478992 230.252101,59.4117647 C231.008403,60.5882353 232.016807,62.0168067 234.705882,62.0168067 C236.470588,62.0168067 237.89916,61.512605 238.823529,60.5042017 C239.747899,59.4957983 240.252101,58.4033613 240.252101,57.1428571 C240.252101,56.3865546 240.084034,55.5462185 239.831933,54.8739496 C239.579832,54.1176471 238.991597,53.0252101 238.151261,51.5966387 C237.310924,50 236.806723,48.8235294 236.806723,47.8991597 C236.806723,47.2268908 237.058824,46.7226891 237.647059,46.302521 C238.235294,45.8823529 238.823529,45.7142857 239.579832,45.7142857 C240.504202,45.7142857 241.092437,46.1344538 241.260504,46.9747899 C241.428571,47.7310924 241.764706,48.1512605 242.184874,48.1512605 C242.773109,48.1512605 243.02521,47.8151261 243.02521,47.1428571 C243.613445,46.302521 243.277311,45.7983193 242.605042,45.3781513" id="Shape" fill="#383838"></path>
                    <path d="M274.369748,56.1344538 C274.369748,54.5378151 274.705882,52.8571429 275.462185,51.0084034 C276.218487,49.1596639 277.226891,47.6470588 278.655462,46.4705882 C280,45.2941176 281.344538,44.7058824 282.605042,44.7058824 C283.781513,44.7058824 284.705882,45.210084 285.462185,46.2184874 C286.218487,47.2268908 286.638655,48.5714286 286.638655,50.2521008 C286.638655,52.2689076 286.218487,54.2857143 285.378151,56.0504202 C284.537815,57.8991597 281.932773,61.7647059 278.487395,61.7647059 C275.210084,61.7647059 274.369748,58.1512605 274.369748,56.1344538 M276.470588,58.4033613 C276.470588,59.0756303 276.638655,59.7478992 277.058824,60.2521008 C277.394958,60.7563025 277.89916,61.0084034 278.571429,61.0084034 C280.336134,61.0084034 281.764706,59.3277311 282.941176,55.9663866 C284.117647,52.605042 284.621849,50.0840336 284.621849,48.3193277 C284.621849,47.394958 284.453782,46.7226891 284.117647,46.302521 C283.781513,45.8823529 283.277311,45.6302521 282.521008,45.6302521 C280.840336,45.6302521 279.495798,47.1428571 278.235294,50.2521008 C277.058824,53.2773109 276.470588,56.0504202 276.470588,58.4033613" id="Shape" fill="#383838"></path>
                    <path d="M286.554622,51.092437 L286.134454,49.4957983 C286.722689,47.9831933 289.579832,44.5378151 291.848739,44.5378151 C292.436975,44.5378151 292.857143,44.789916 293.109244,45.210084 C293.361345,45.6302521 293.529412,46.3865546 293.529412,47.3109244 C293.529412,48.487395 293.193277,50.0840336 292.605042,52.1848739 C292.689076,52.0168067 292.941176,51.5966387 293.277311,50.7563025 C294.285714,48.5714286 295.12605,46.9747899 295.798319,45.9663866 C296.554622,44.9579832 297.226891,44.5378151 297.983193,44.5378151 C298.403361,44.5378151 298.823529,44.7058824 299.07563,44.9579832 C299.327731,45.210084 299.495798,45.6302521 299.495798,45.9663866 C299.495798,46.3865546 299.411765,46.7226891 299.159664,46.8907563 C298.907563,47.1428571 298.655462,47.2268908 298.319328,47.2268908 C297.983193,47.2268908 297.647059,46.9747899 297.226891,46.5546218 C297.058824,46.3865546 296.97479,46.302521 296.806723,46.302521 C296.134454,46.302521 295.12605,47.8991597 293.781513,51.0084034 C292.436975,54.2016807 291.344538,57.1428571 290.420168,59.9159664 L290,61.3445378 L287.647059,61.3445378 L290.840336,50.8403361 C291.428571,48.8235294 291.764706,47.4789916 291.764706,46.8067227 C291.764706,46.3865546 291.680672,46.1344538 291.596639,45.9663866 C291.512605,45.7983193 291.344538,45.7142857 291.176471,45.7142857 C289.579832,45.9663866 286.97479,49.4117647 286.554622,51.092437" id="Shape" fill="#383838"></path>
                    <path d="M222.268908,58.8235294 C223.277311,57.2268908 222.605042,57.8151261 221.932773,58.0672269 C221.176471,59.1596639 220.252101,60.1680672 219.411765,60.2521008 C218.991597,60.2521008 218.991597,60.1680672 218.907563,60.0840336 C218.823529,59.9159664 218.739496,59.7478992 218.739496,59.4957983 C218.739496,59.1596639 218.991597,58.1512605 219.579832,56.4705882 L223.277311,44.8739496 L220.92437,44.8739496 L220.420168,46.5546218 C220.252101,45.8823529 220,45.3781513 219.579832,45.0420168 C219.159664,44.7058824 218.655462,44.5378151 217.89916,44.5378151 C216.722689,44.5378151 215.294118,45.210084 213.613445,46.5546218 C211.932773,47.8991597 210.588235,49.6638655 209.579832,51.6806723 C208.571429,53.697479 207.983193,55.6302521 207.983193,57.394958 C207.983193,58.7394958 208.319328,59.7478992 208.991597,60.5882353 C209.663866,61.3445378 210.420168,61.7647059 211.344538,61.7647059 C212.352941,61.7647059 213.361345,61.2605042 214.537815,60.2521008 C215.630252,59.2436975 216.554622,58.2352941 217.142857,57.2268908 C216.890756,58.0672269 216.722689,58.8235294 216.722689,59.3277311 C216.722689,60 216.890756,60.5882353 217.226891,61.0084034 C217.563025,61.4285714 218.067227,61.6806723 218.655462,61.6806723 C219.159664,61.6806723 219.915966,61.512605 220.672269,60.8403361 C221.260504,60.4201681 221.764706,59.6638655 222.268908,58.8235294 M218.319328,52.9411765 C217.394958,55.5462185 216.302521,57.4789916 215.12605,58.8235294 C213.865546,60.0840336 212.857143,60.7563025 211.932773,60.7563025 C211.428571,60.7563025 211.008403,60.5042017 210.756303,60.0840336 C210.504202,59.6638655 210.336134,58.9915966 210.336134,58.1512605 C210.336134,56.1344538 211.176471,53.5294118 212.941176,50.4201681 C214.705882,47.2268908 216.386555,45.6302521 217.983193,45.6302521 C218.487395,45.6302521 218.907563,45.7983193 219.243697,46.2184874 C219.495798,46.6386555 219.663866,47.0588235 219.663866,47.6470588 C219.663866,48.5714286 219.159664,50.3361345 218.319328,52.9411765" id="Shape" fill="#383838"></path>
                    <path d="M259.411765,53.8655462 C258.151261,56.7226891 255.714286,60.2521008 254.369748,60.2521008 C254.117647,60.2521008 253.94958,60.1680672 253.865546,60.0840336 C253.781513,59.9159664 253.697479,59.7478992 253.697479,59.4957983 C253.697479,59.1596639 253.94958,58.1512605 254.537815,56.4705882 L258.235294,44.8739496 L255.798319,44.8739496 L255.294118,46.5546218 C255.12605,45.8823529 254.87395,45.3781513 254.453782,45.0420168 C254.033613,44.7058824 253.529412,44.5378151 252.773109,44.5378151 C251.596639,44.5378151 250.168067,45.210084 248.487395,46.5546218 C246.806723,47.8991597 245.462185,49.6638655 244.453782,51.6806723 C243.445378,53.697479 242.857143,55.6302521 242.857143,57.394958 C242.857143,58.7394958 243.193277,59.7478992 243.865546,60.5882353 C244.537815,61.3445378 245.294118,61.7647059 246.218487,61.7647059 C247.226891,61.7647059 248.235294,61.2605042 249.411765,60.2521008 C250.504202,59.2436975 251.428571,58.2352941 252.016807,57.2268908 C251.764706,58.0672269 251.596639,58.8235294 251.596639,59.3277311 C251.596639,60 251.764706,60.5882353 252.10084,61.0084034 C252.436975,61.4285714 252.941176,61.6806723 253.529412,61.6806723 C256.302521,61.6806723 259.07563,55.7983193 259.411765,55.1260504 L259.411765,53.8655462 L259.411765,53.8655462 Z M253.193277,53.0252101 C252.268908,55.6302521 251.260504,57.5630252 250,58.907563 C248.739496,60.1680672 247.731092,60.8403361 246.806723,60.8403361 C246.302521,60.8403361 245.882353,60.5882353 245.630252,60.1680672 C245.378151,59.7478992 245.210084,59.0756303 245.210084,58.2352941 C245.210084,56.2184874 246.05042,53.6134454 247.815126,50.5042017 C249.579832,47.3109244 251.260504,45.7142857 252.857143,45.7142857 C253.361345,45.7142857 253.781513,45.8823529 254.117647,46.302521 C254.369748,46.7226891 254.537815,47.1428571 254.537815,47.7310924 C254.537815,48.5714286 254.117647,50.3361345 253.193277,53.0252101 L253.193277,53.0252101 Z" id="Shape" fill="#383838"></path>
                    <rect id="Rectangle-path" x="0.25210084" y="0.25210084" width="299.327731" height="84.6218487"></rect>
                    <path d="M279.663866,29.6638655 L277.310924,29.6638655 C271.344538,45.4621849 270.92437,46.3865546 270.92437,46.3865546 C270.672269,45.7983193 270.168067,45.210084 269.747899,44.9579832 C269.327731,44.7058824 268.823529,44.5378151 268.235294,44.5378151 C267.058824,44.5378151 265.714286,45.1260504 264.201681,46.302521 C262.605042,47.4789916 261.344538,49.2436975 260.252101,51.4285714 C259.159664,53.6134454 258.655462,55.6302521 258.655462,57.5630252 C258.655462,58.907563 258.991597,60 259.579832,60.6722689 C260.252101,61.4285714 261.008403,61.7647059 261.848739,61.7647059 C263.445378,61.7647059 265.210084,60.5882353 267.058824,58.2352941 C266.97479,58.5714286 266.97479,58.907563 266.97479,59.2436975 C266.97479,60.0840336 267.142857,60.6722689 267.478992,61.092437 C267.815126,61.512605 268.487395,61.7647059 269.07563,61.7647059 C272.10084,61.7647059 274.033613,57.6470588 274.705882,56.5546218 L274.369748,55.210084 C274.369748,55.9663866 271.764706,60.3361345 270,60.3361345 C269.747899,60.3361345 269.579832,60.2521008 269.495798,60.0840336 C269.411765,59.9159664 269.327731,59.6638655 269.327731,59.3277311 C269.411765,56.9747899 279.663866,29.6638655 279.663866,29.6638655 M268.739496,52.8571429 C267.731092,55.7142857 266.722689,57.7310924 265.546218,58.907563 C264.369748,60.1680672 263.361345,60.7563025 262.521008,60.7563025 C262.016807,60.7563025 261.680672,60.5882353 261.428571,60.1680672 C261.176471,59.8319328 261.008403,59.2436975 261.008403,58.487395 C261.008403,56.8067227 261.596639,54.7058824 262.689076,52.2689076 C263.781513,49.7478992 264.789916,48.0672269 265.798319,47.0588235 C266.722689,46.0504202 267.647059,45.5462185 268.487395,45.5462185 C268.991597,45.5462185 269.495798,45.7142857 269.831933,46.1344538 C270.168067,46.5546218 270.336134,46.9747899 270.336134,47.4789916 C270.168067,48.2352941 269.663866,50 268.739496,52.8571429" id="Shape" fill="#383838"></path>
                    <path d="M270,21.4285714 C273.613445,17.5630252 272.436975,11.2605042 270.504202,9.24369748 C269.831933,8.48739496 269.747899,10.0840336 269.579832,11.092437 C268.991597,13.6134454 267.731092,15.210084 264.033613,17.1428571 C264.033613,17.1428571 267.563025,14.6218487 265.630252,10.9243697 C265.12605,10 265.12605,10.9243697 264.117647,11.8487395 C262.016807,13.697479 261.428571,10.8403361 256.134454,16.1344538 C252.857143,19.4117647 246.05042,18.907563 246.05042,18.907563 C261.176471,17.1428571 256.470588,8.7394958 254.705882,8.48739496 C254.117647,8.40336134 253.865546,13.1932773 248.571429,12.1008403 C246.05042,11.5966387 245.210084,9.32773109 240.92437,9.41176471 C242.941176,9.49579832 245.546218,7.14285714 244.621849,7.14285714 C242.941176,7.81512605 241.176471,6.13445378 238.991597,6.38655462 C238.151261,6.38655462 234.789916,7.73109244 232.605042,8.23529412 C229.663866,8.82352941 227.647059,8.7394958 227.647059,8.7394958 C236.97479,8.57142857 238.571429,3.19327731 236.218487,0.420168067 C236.218487,0.420168067 235.882353,1.17647059 235.042017,1.68067227 C229.915966,4.62184874 223.109244,-2.5210084 213.445378,3.36134454 C212.352941,4.03361345 214.789916,1.09243697 218.151261,0.672268908 C215.546218,0.25210084 196.134454,-0.25210084 179.327731,19.4117647 C179.243697,19.5798319 179.327731,19.8319328 179.579832,19.6638655 C189.831933,11.7647059 210.252101,0.0840336134 219.411765,19.4117647 C220.504202,22.1848739 220.168067,24.7058824 219.495798,26.2184874 C221.764706,26.5546218 223.109244,24.4537815 223.109244,24.7058824 C223.109244,26.3865546 224.705882,27.1428571 224.789916,26.5546218 C225.042017,25.1260504 226.302521,24.1176471 226.218487,21.512605 C226.05042,18.4033613 224.453782,14.8739496 219.327731,11.5966387 C229.327731,16.7226891 225.966387,23.2773109 233.445378,29.8319328 C235.798319,31.9327731 238.991597,32.1848739 239.915966,33.9495798 C240.504202,35.8823529 238.991597,36.1344538 238.823529,36.4705882 C238.571429,36.8907563 243.109244,38.7394958 245.12605,34.3697479 C246.218487,31.7647059 244.453782,28.4033613 242.857143,24.789916 C245.546218,29.6638655 247.478992,33.5294118 250.084034,33.8655462 C253.781513,34.3697479 254.369748,37.2268908 254.87395,36.4705882 C256.218487,34.4537815 254.117647,31.7647059 254.117647,31.7647059 C258.067227,32.1008403 263.277311,29.6638655 265.294118,29.6638655 C268.067227,29.6638655 269.243697,31.5966387 269.495798,31.0084034 C270.084034,29.4957983 269.747899,27.5630252 267.815126,26.1344538 C265.462185,24.4537815 261.764706,25.9663866 259.579832,24.5378151 C266.218487,25.2941176 267.647059,23.2773109 270.336134,23.697479 C271.428571,23.8655462 272.10084,24.2857143 272.10084,23.9495798 C272.268908,22.2689076 270,21.4285714 270,21.4285714 M239.579832,20.8403361 C232.941176,17.3109244 213.865546,-2.5210084 194.453782,8.99159664 C194.453782,8.90756303 194.537815,8.82352941 194.705882,8.7394958 C214.789916,-3.19327731 235.042017,16.6386555 240.840336,20.1680672 C249.915966,25.7142857 257.310924,23.0252101 257.310924,23.0252101 C257.310924,23.0252101 251.512605,27.2268908 239.579832,20.8403361" id="Shape" fill="#F4C078"></path>
                    <path d="M99.1596639,82.1848739 C99.0756303,82.7731092 98.7394958,84.2016807 98.6554622,84.7058824 L91.0084034,84.7058824 L91.0084034,84.2016807 C92.3529412,84.1176471 92.5210084,83.9495798 92.5210084,82.6890756 L92.5210084,76.7226891 C92.5210084,75.3781513 92.3529412,75.2941176 91.2605042,75.210084 L91.2605042,74.7058824 L98.3193277,74.7058824 C98.3193277,75.0420168 98.4033613,76.0504202 98.487395,76.9747899 L97.9831933,77.0588235 C97.8151261,76.4705882 97.6470588,76.0504202 97.394958,75.7142857 C97.1428571,75.4621849 96.7226891,75.2941176 95.7983193,75.2941176 L94.8739496,75.2941176 C94.3697479,75.2941176 94.2857143,75.2941176 94.2857143,75.7983193 L94.2857143,79.1596639 L95.4621849,79.1596639 C96.8067227,79.1596639 96.9747899,79.0756303 97.1428571,77.9831933 L97.6470588,77.9831933 L97.6470588,81.0084034 L97.1428571,81.0084034 C96.9747899,79.9159664 96.8067227,79.8319328 95.4621849,79.8319328 L94.2857143,79.8319328 L94.2857143,82.605042 C94.2857143,83.3613445 94.3697479,83.697479 94.6218487,83.8655462 C94.8739496,84.0336134 95.4621849,84.0336134 96.0504202,84.0336134 C96.9747899,84.0336134 97.4789916,83.9495798 97.8151261,83.5294118 C98.0672269,83.1932773 98.4033613,82.6890756 98.6554622,82.0168067 L99.1596639,82.1848739 L99.1596639,82.1848739 Z" id="Shape" fill="#F4C078"></path>
                    <path d="M110.420168,75.210084 C109.411765,75.2941176 109.159664,75.4621849 108.571429,76.9747899 C108.067227,78.0672269 106.638655,81.7647059 105.462185,84.8739496 L104.789916,84.8739496 C103.781513,82.1008403 102.352941,78.487395 101.680672,76.6386555 C101.260504,75.4621849 101.008403,75.2941176 100,75.210084 L100,74.7058824 L104.285714,74.7058824 L104.285714,75.210084 C103.193277,75.3781513 103.109244,75.5462185 103.361345,76.2184874 C103.781513,77.394958 104.957983,80.4201681 105.714286,82.3529412 L105.714286,82.3529412 C106.554622,80.2521008 107.394958,77.9831933 107.815126,76.5546218 C108.151261,75.5462185 108.067227,75.3781513 106.890756,75.210084 L106.890756,74.7058824 L110.420168,74.7058824 L110.420168,75.210084 L110.420168,75.210084 Z" id="Shape" fill="#F4C078"></path>
                    <path d="M119.579832,82.1848739 C119.495798,82.7731092 119.159664,84.2016807 119.07563,84.7058824 L111.428571,84.7058824 L111.428571,84.2016807 C112.773109,84.1176471 112.941176,83.9495798 112.941176,82.6890756 L112.941176,76.7226891 C112.941176,75.3781513 112.773109,75.2941176 111.680672,75.210084 L111.680672,74.7058824 L118.739496,74.7058824 C118.739496,75.0420168 118.823529,76.0504202 118.907563,76.9747899 L118.403361,77.0588235 C118.235294,76.4705882 118.067227,76.0504202 117.815126,75.7142857 C117.563025,75.4621849 117.142857,75.2941176 116.218487,75.2941176 L115.294118,75.2941176 C114.789916,75.2941176 114.705882,75.2941176 114.705882,75.7983193 L114.705882,79.1596639 L115.882353,79.1596639 C117.226891,79.1596639 117.394958,79.0756303 117.563025,77.9831933 L118.067227,77.9831933 L118.067227,81.0084034 L117.563025,81.0084034 C117.394958,79.9159664 117.226891,79.8319328 115.882353,79.8319328 L114.705882,79.8319328 L114.705882,82.605042 C114.705882,83.3613445 114.789916,83.697479 115.042017,83.8655462 C115.294118,84.0336134 115.882353,84.0336134 116.470588,84.0336134 C117.394958,84.0336134 117.89916,83.9495798 118.235294,83.5294118 C118.487395,83.1932773 118.823529,82.6890756 119.07563,82.0168067 L119.579832,82.1848739 L119.579832,82.1848739 Z" id="Shape" fill="#F4C078"></path>
                    <path d="M131.260504,75.210084 C130.420168,75.2941176 130.084034,75.4621849 130,76.1344538 C129.915966,76.5546218 129.915966,77.3109244 129.915966,78.7394958 L129.915966,84.8739496 L129.243697,84.8739496 L122.773109,77.0588235 L122.773109,77.0588235 L122.773109,80.6722689 C122.773109,82.0168067 122.857143,82.6890756 122.857143,83.1932773 C122.941176,83.9495798 123.193277,84.2016807 124.369748,84.2016807 L124.369748,84.7058824 L120.672269,84.7058824 L120.672269,84.2016807 C121.512605,84.1176471 121.932773,83.9495798 122.016807,83.1932773 C122.10084,82.6890756 122.10084,82.0168067 122.10084,80.5882353 L122.10084,77.3109244 C122.10084,76.302521 122.10084,76.0504202 121.764706,75.7142857 C121.428571,75.2941176 121.176471,75.210084 120.420168,75.1260504 L120.420168,74.6218487 L123.02521,74.6218487 L129.07563,81.6806723 L129.159664,81.6806723 L129.159664,78.5714286 C129.159664,77.2268908 129.07563,76.4705882 129.07563,76.0504202 C128.991597,75.3781513 128.655462,75.1260504 127.563025,75.0420168 L127.563025,74.5378151 L131.260504,74.5378151 L131.260504,75.210084 L131.260504,75.210084 Z" id="Shape" fill="#F4C078"></path>
                    <path d="M140.756303,77.2268908 C140.588235,76.4705882 140.420168,75.9663866 140.168067,75.7142857 C139.915966,75.3781513 139.579832,75.2941176 138.571429,75.2941176 L137.731092,75.2941176 L137.731092,82.6890756 C137.731092,83.9495798 137.89916,84.1176471 139.243697,84.2016807 L139.243697,84.7058824 L134.453782,84.7058824 L134.453782,84.2016807 C135.798319,84.1176471 135.966387,83.9495798 135.966387,82.6890756 L135.966387,75.2941176 L135.294118,75.2941176 C134.033613,75.2941176 133.781513,75.4621849 133.529412,75.7142857 C133.277311,75.9663866 133.109244,76.4705882 132.941176,77.2268908 L132.436975,77.2268908 C132.521008,76.2184874 132.605042,75.1260504 132.605042,74.2857143 L132.941176,74.2857143 C133.193277,74.6218487 133.361345,74.7058824 133.781513,74.7058824 L139.915966,74.7058824 C140.336134,74.7058824 140.504202,74.6218487 140.756303,74.2857143 L141.092437,74.2857143 C141.092437,74.9579832 141.176471,76.2184874 141.260504,77.1428571 L140.756303,77.2268908 L140.756303,77.2268908 Z" id="Shape" fill="#F4C078"></path>
                    <path d="M155.882353,82.1008403 C155.630252,82.8571429 155.294118,84.0336134 155.042017,84.5378151 C154.621849,84.6218487 153.277311,84.9579832 152.184874,84.9579832 C148.235294,84.9579832 146.470588,82.2689076 146.470588,79.8319328 C146.470588,76.6386555 148.907563,74.4537815 152.521008,74.4537815 C153.781513,74.4537815 154.87395,74.789916 155.294118,74.8739496 C155.378151,75.7142857 155.546218,76.3865546 155.630252,77.3109244 L155.12605,77.394958 C154.621849,75.6302521 153.613445,75.0420168 152.184874,75.0420168 C149.831933,75.0420168 148.571429,77.1428571 148.571429,79.4957983 C148.571429,82.3529412 150.168067,84.2016807 152.352941,84.2016807 C153.781513,84.2016807 154.621849,83.3613445 155.462185,81.8487395 L155.882353,82.1008403 L155.882353,82.1008403 Z" id="Shape" fill="#F4C078"></path>
                    <path d="M165.210084,82.1848739 C165.12605,82.7731092 164.789916,84.2016807 164.705882,84.7058824 L157.058824,84.7058824 L157.058824,84.2016807 C158.403361,84.1176471 158.571429,83.9495798 158.571429,82.6890756 L158.571429,76.7226891 C158.571429,75.3781513 158.403361,75.2941176 157.310924,75.210084 L157.310924,74.7058824 L164.369748,74.7058824 C164.369748,75.0420168 164.453782,76.0504202 164.537815,76.9747899 L164.033613,77.0588235 C163.865546,76.4705882 163.697479,76.0504202 163.445378,75.7142857 C163.193277,75.4621849 162.773109,75.2941176 161.848739,75.2941176 L160.92437,75.2941176 C160.420168,75.2941176 160.336134,75.2941176 160.336134,75.7983193 L160.336134,79.1596639 L161.512605,79.1596639 C162.857143,79.1596639 163.02521,79.0756303 163.193277,77.9831933 L163.697479,77.9831933 L163.697479,81.0084034 L163.193277,81.0084034 C163.02521,79.9159664 162.857143,79.8319328 161.512605,79.8319328 L160.336134,79.8319328 L160.336134,82.605042 C160.336134,83.3613445 160.420168,83.697479 160.672269,83.8655462 C160.92437,84.0336134 161.512605,84.0336134 162.10084,84.0336134 C163.02521,84.0336134 163.529412,83.9495798 163.865546,83.5294118 C164.117647,83.1932773 164.453782,82.6890756 164.705882,82.0168067 L165.210084,82.1848739 L165.210084,82.1848739 Z" id="Shape" fill="#F4C078"></path>
                    <path d="M176.890756,75.210084 C176.05042,75.2941176 175.714286,75.4621849 175.630252,76.1344538 C175.546218,76.5546218 175.546218,77.3109244 175.546218,78.7394958 L175.546218,84.8739496 L174.87395,84.8739496 L168.403361,77.0588235 L168.403361,77.0588235 L168.403361,80.6722689 C168.403361,82.0168067 168.487395,82.6890756 168.487395,83.1932773 C168.571429,83.9495798 168.823529,84.2016807 170,84.2016807 L170,84.7058824 L166.302521,84.7058824 L166.302521,84.2016807 C167.142857,84.1176471 167.563025,83.9495798 167.647059,83.1932773 C167.731092,82.6890756 167.731092,82.0168067 167.731092,80.5882353 L167.731092,77.3109244 C167.731092,76.302521 167.731092,76.0504202 167.394958,75.7142857 C167.058824,75.2941176 166.722689,75.210084 166.05042,75.1260504 L166.05042,74.6218487 L168.655462,74.6218487 L174.705882,81.6806723 L174.789916,81.6806723 L174.789916,78.5714286 C174.789916,77.2268908 174.705882,76.4705882 174.705882,76.0504202 C174.621849,75.3781513 174.285714,75.1260504 173.193277,75.0420168 L173.193277,74.5378151 L176.890756,74.5378151 L176.890756,75.210084 L176.890756,75.210084 Z" id="Shape" fill="#F4C078"></path>
                    <path d="M186.386555,77.2268908 C186.218487,76.4705882 186.05042,75.9663866 185.798319,75.7142857 C185.546218,75.3781513 185.210084,75.2941176 184.201681,75.2941176 L183.361345,75.2941176 L183.361345,82.6890756 C183.361345,83.9495798 183.529412,84.1176471 184.87395,84.2016807 L184.87395,84.7058824 L180.084034,84.7058824 L180.084034,84.2016807 C181.428571,84.1176471 181.596639,83.9495798 181.596639,82.6890756 L181.596639,75.2941176 L180.92437,75.2941176 C179.663866,75.2941176 179.327731,75.4621849 179.159664,75.7142857 C178.907563,75.9663866 178.739496,76.4705882 178.571429,77.2268908 L178.067227,77.2268908 C178.151261,76.2184874 178.235294,75.1260504 178.235294,74.2857143 L178.571429,74.2857143 C178.823529,74.6218487 178.991597,74.7058824 179.411765,74.7058824 L185.546218,74.7058824 C185.966387,74.7058824 186.134454,74.6218487 186.386555,74.2857143 L186.722689,74.2857143 C186.722689,74.9579832 186.806723,76.2184874 186.890756,77.1428571 L186.386555,77.2268908 L186.386555,77.2268908 Z" id="Shape" fill="#F4C078"></path>
                    <path d="M197.563025,84.8739496 L197.058824,84.8739496 C195.378151,84.789916 194.789916,84.3697479 194.117647,83.4453782 C193.697479,82.7731092 193.193277,81.9327731 192.773109,81.092437 C192.521008,80.6722689 192.268908,80.4201681 191.680672,80.4201681 L191.344538,80.4201681 L191.344538,82.7731092 C191.344538,84.0336134 191.512605,84.2016807 192.689076,84.2857143 L192.689076,84.789916 L188.235294,84.789916 L188.235294,84.2857143 C189.411765,84.2016807 189.579832,84.0336134 189.579832,82.7731092 L189.579832,76.7226891 C189.579832,75.4621849 189.411765,75.3781513 188.319328,75.210084 L188.319328,74.7058824 L192.436975,74.7058824 C193.697479,74.7058824 194.453782,74.8739496 195.042017,75.2941176 C195.630252,75.7142857 196.05042,76.3865546 196.05042,77.3109244 C196.05042,78.6554622 195.210084,79.4117647 194.117647,79.8319328 C194.369748,80.3361345 194.957983,81.3445378 195.378151,82.0168067 C195.966387,82.8571429 196.218487,83.3613445 196.554622,83.697479 C196.890756,84.1176471 197.226891,84.2857143 197.563025,84.3697479 L197.563025,84.8739496 L197.563025,84.8739496 Z M191.848739,79.8319328 C192.521008,79.8319328 193.02521,79.7478992 193.445378,79.4117647 C193.94958,78.9915966 194.201681,78.3193277 194.201681,77.5630252 C194.201681,75.8823529 193.193277,75.2941176 192.268908,75.2941176 C191.848739,75.2941176 191.680672,75.3781513 191.512605,75.4621849 C191.428571,75.5462185 191.344538,75.7142857 191.344538,76.0504202 L191.344538,79.8319328 L191.848739,79.8319328 L191.848739,79.8319328 Z" id="Shape" fill="#F4C078"></path>
                    <path d="M206.638655,82.1848739 C206.554622,82.7731092 206.218487,84.2016807 206.134454,84.7058824 L198.487395,84.7058824 L198.487395,84.2016807 C199.831933,84.1176471 200,83.9495798 200,82.6890756 L200,76.7226891 C200,75.3781513 199.831933,75.2941176 198.739496,75.210084 L198.739496,74.7058824 L205.798319,74.7058824 C205.798319,75.0420168 205.882353,76.0504202 205.966387,76.9747899 L205.462185,77.0588235 C205.294118,76.4705882 205.12605,76.0504202 204.87395,75.7142857 C204.621849,75.4621849 204.201681,75.2941176 203.277311,75.2941176 L202.352941,75.2941176 C201.848739,75.2941176 201.764706,75.2941176 201.764706,75.7983193 L201.764706,79.1596639 L202.941176,79.1596639 C204.285714,79.1596639 204.453782,79.0756303 204.621849,77.9831933 L205.12605,77.9831933 L205.12605,81.0084034 L204.621849,81.0084034 C204.453782,79.9159664 204.285714,79.8319328 202.941176,79.8319328 L201.680672,79.8319328 L201.680672,82.605042 C201.680672,83.3613445 201.764706,83.697479 202.016807,83.8655462 C202.268908,84.0336134 202.857143,84.0336134 203.445378,84.0336134 C204.369748,84.0336134 204.87395,83.9495798 205.210084,83.5294118 C205.462185,83.1932773 205.798319,82.6890756 206.05042,82.0168067 L206.638655,82.1848739 L206.638655,82.1848739 Z" id="Shape" fill="#F4C078"></path>
                    <polygon id="Shape" fill="#F4C078" points="214.705882 80.4201681 214.705882 77.8991597 273.613445 79.2436975"></polygon>
                    <polygon id="Shape" fill="#F4C078" points="80.6722689 80.4201681 80.6722689 77.8991597 21.7647059 79.2436975"></polygon>
                </g>
            </g>
        </g>
    </g>
</svg>