<?xml version="1.0" encoding="UTF-8" standalone="no"?>
<svg width="600px" height="101px" viewBox="0 0 600 101" version="1.1" xmlns="http://www.w3.org/2000/svg" xmlns:xlink="http://www.w3.org/1999/xlink">
    <g id="Welcome" stroke="none" stroke-width="1" fill="none" fill-rule="evenodd">
        <g id="RSVP---v4" transform="translate(-216.000000, -766.000000)" fill="#F4C078">
            <g id="Border-3" transform="translate(212.000000, 138.000000)">
                <g id="Page-1" transform="translate(3.000000, 628.000000)">
                    <path d="M435.690123,17.5367259 C434.881481,17.0379604 434.051852,16.5453678 433.181481,16.0663555 C411.508642,4.13919499 377.282716,12.1231456 359.166667,27.2996888 C363.974074,23.2206765 369.150617,19.5972197 374.64321,16.4996888 C379.960494,13.5700592 385.532099,11.0972197 391.288889,9.12314561 C393.097531,8.50215796 394.923457,7.93425672 396.761728,7.41079993 C415.060494,2.4083308 434.612346,2.76141721 452.828395,8.49968882 C447.065432,11.4256147 441.411111,14.684874 435.690123,17.5367259 M421.091358,70.7490715 C428.667901,65.8490715 434.654321,56.8453678 431.538272,45.1009234 C429.066667,35.7898123 422.306173,29.7996888 414.067901,26.9577135 C417.77284,26.0700592 421.559259,25.0749975 425.449383,23.9811703 C428.112346,23.2330222 430.720988,22.2589481 433.296296,21.1416641 C465.839506,42.3330222 441.022222,78.4293184 421.091358,70.7490715 M415.323457,67.0873431 C414.654321,66.4651209 414,65.7787012 413.362963,65.021911 C409.406173,60.3182073 410.118519,53.1033925 413.398765,48.8688246 C416.461728,44.9120345 421.575309,43.3280839 425.15679,46.384874 C427.203704,48.1317876 427.92716,50.9490715 427.35679,53.5799357 C425.964198,60.0194419 420.816049,64.6712938 415.323457,67.0873431 M383.725926,29.584874 C383.560494,29.6737629 383.4,29.7700592 383.235802,29.8614172 C379.238272,30.0453678 375.608642,30.0601826 372.522222,29.947837 C368.165432,29.7885777 364.064198,29.3836394 360.145679,28.776232 C360.192593,28.7367259 360.239506,28.6959851 360.285185,28.6564789 C378.330864,13.530553 408.875309,7.47252833 429.869136,19.0787012 C430.265432,19.2984543 430.640741,19.5231456 431.023457,19.7466024 C429.219753,20.5490715 427.406173,21.2959851 425.574074,21.9564789 C420.887654,23.6453678 416.039506,25.0157382 411.207407,26.1145036 C402.245679,23.8824049 392.007407,25.093516 383.725926,29.584874 M367.425926,45.9626518 C367.228395,46.4280839 367.035802,47.0601826 366.846914,47.8070962 C366.723457,46.6663555 366.555556,45.5354913 366.32963,44.4206765 C365.225926,38.984874 363.137037,34.3095654 360.401235,30.3527752 C366.981481,31.4453678 373.508642,31.884874 380.119753,31.7589481 C374.237037,35.6626518 369.676543,40.6416641 367.425926,45.9626518 M356.916049,78.7379604 C344.061728,94.4601826 320.001235,100.33796 301.933333,92.8243802 C309.644444,88.7453678 316.046914,81.9898123 319.775309,72.1651209 C330.285185,71.6182073 337.714815,63.1379604 339.54321,53.4712938 C339.685185,53.4910468 339.825926,53.5145036 339.971605,53.5145036 C341.692593,53.5145036 343.102469,52.1046271 343.102469,50.3787012 C343.102469,49.7404296 342.907407,49.1466024 342.577778,48.6515407 C346.835802,41.7070962 352.477778,35.5058617 358.365432,30.3132691 C361.350617,34.339195 363.660494,39.3095654 364.88642,45.3527752 C367.141975,56.4663555 364.158025,69.8787012 356.916049,78.7379604 M300.596296,92.2379604 C292.466667,88.4922814 285.687654,81.9206765 281.903704,72.1811703 C282.046914,72.184874 282.187654,72.1947505 282.332099,72.1959851 C283.798765,72.1638864 285.267901,72.0009234 286.697531,71.6626518 C298.062963,68.9737629 302.638272,53.2836394 294.44321,44.9169728 C292.298765,42.7280839 289.564198,41.3799357 286.71358,40.8922814 C290.423457,35.9552444 295.292593,31.9120345 300.592593,29.276232 C300.596296,29.2774666 300.596296,28.8466024 300.596296,28.739195 C300.596296,28.8466024 300.596296,29.2774666 300.6,29.276232 C305.9,31.9120345 310.769136,35.9552444 314.479012,40.8922814 C311.628395,41.3799357 308.893827,42.7280839 306.748148,44.9169728 C298.553086,53.2836394 303.12963,68.9737629 314.495062,71.6626518 C315.924691,72.0009234 317.392593,72.1638864 318.860494,72.1959851 C319.004938,72.1947505 319.145679,72.184874 319.287654,72.1811703 C315.504938,81.9206765 308.725926,88.4922814 300.596296,92.2379604 M244.276543,78.7379604 C237.034568,69.8787012 234.050617,56.4663555 236.306173,45.3527752 C237.532099,39.3095654 239.841975,34.339195 242.82716,30.3132691 C248.714815,35.5058617 254.35679,41.7070962 258.614815,48.6515407 C258.285185,49.1466024 258.090123,49.7404296 258.090123,50.3787012 C258.090123,52.1046271 259.5,53.5145036 261.219753,53.5145036 C261.366667,53.5145036 261.507407,53.4910468 261.649383,53.4712938 C263.477778,63.1379604 270.907407,71.6182073 281.417284,72.1651209 C285.144444,81.9898123 291.548148,88.7453678 299.259259,92.8243802 C281.190123,100.33796 257.130864,94.4601826 244.276543,78.7379604 M234.345679,47.8070962 C234.15679,47.0601826 233.964198,46.4280839 233.766667,45.9626518 C231.516049,40.6416641 226.955556,35.6626518 221.071605,31.7589481 C227.683951,31.884874 234.211111,31.4453678 240.791358,30.3527752 C238.055556,34.3095654 235.966667,38.984874 234.862963,44.4206765 C234.637037,45.5354913 234.469136,46.6663555 234.345679,47.8070962 M217.95679,29.8614172 C217.792593,29.7700592 217.632099,29.6737629 217.466667,29.584874 C209.185185,25.093516 198.946914,23.8824049 189.985185,26.1145036 C185.153086,25.0157382 180.304938,23.6453678 175.618519,21.9564789 C173.78642,21.2959851 171.97284,20.5490715 170.169136,19.7466024 C170.551852,19.5231456 170.92716,19.2984543 171.323457,19.0787012 C192.317284,7.47252833 222.861728,13.530553 240.907407,28.6564789 C240.953086,28.6959851 241,28.7367259 241.046914,28.776232 C237.128395,29.3836394 233.02716,29.7885777 228.67037,29.947837 C225.583951,30.0601826 221.953086,30.0453678 217.95679,29.8614172 M169.654321,45.1009234 C166.538272,56.8453678 172.524691,65.8490715 180.101235,70.7490715 C160.17037,78.4293184 135.353086,42.3330222 167.895062,21.1416641 C170.471605,22.2589481 173.080247,23.2330222 175.74321,23.9811703 C179.633333,25.0749975 183.419753,26.0700592 187.124691,26.9577135 C178.88642,29.7996888 172.124691,35.7898123 169.654321,45.1009234 M176.035802,46.384874 C179.617284,43.3280839 184.730864,44.9120345 187.793827,48.8688246 C191.074074,53.1033925 191.78642,60.3182073 187.82963,65.021911 C187.192593,65.7787012 186.538272,66.4651209 185.869136,67.0873431 C180.376543,64.6712938 175.228395,60.0194419 173.834568,53.5799357 C173.265432,50.9490715 173.988889,48.1317876 176.035802,46.384874 M148.364198,8.49968882 C166.580247,2.76141721 186.132099,2.4083308 204.430864,7.41079993 C206.269136,7.93425672 208.095062,8.50215796 209.903704,9.12314561 C215.660494,11.0972197 221.230864,13.5700592 226.549383,16.4996888 C232.041975,19.5972197 237.218519,23.2206765 242.025926,27.2996888 C223.909877,12.1231456 189.683951,4.13919499 168.011111,16.0663555 C167.140741,16.5453678 166.311111,17.0379604 165.502469,17.5367259 C159.780247,14.684874 154.12716,11.4256147 148.364198,8.49968882 M277.283951,16.8169728 C266.659259,21.7601826 256.409877,25.9046271 244.551852,28.1700592 C253.55679,17.9046271 267.311111,14.9132691 277.283951,16.8169728 M279.037037,17.2033925 C284.569136,18.647837 287.508642,21.9416641 288.354321,25.2404296 C285.620988,25.0453678 282.934568,25.2651209 280.387654,25.9527752 C278.960494,26.3379604 277.620988,26.7898123 276.367901,27.302158 C276.261728,26.9404296 275.997531,26.6651209 275.662963,26.4675901 C273.725926,25.0095654 271.759259,26.7367259 271.759259,28.7120345 C271.759259,28.939195 271.787654,29.1564789 271.830864,29.3675901 C271.838272,29.5169728 271.848148,29.6169728 271.848148,29.6169728 C264.97037,33.9787012 261.706173,40.5577135 261.262963,47.247837 C261.248148,47.247837 261.234568,47.2428987 261.219753,47.2428987 C260.740741,47.2428987 260.290123,47.3626518 259.881481,47.5577135 C255.793827,40.7984543 250.395062,34.747837 244.704938,29.6268493 C255.576543,27.3996888 266.677778,23.3626518 278.639506,17.1107999 C278.77037,17.1428987 278.907407,17.1700592 279.037037,17.2033925 M284.07284,33.7231456 C283.918519,33.7725283 283.765432,33.8231456 283.608642,33.8663555 C281.809877,34.3552444 279.8,34.276232 278,33.8268493 C277.214815,33.630553 276.292593,33.3749975 275.724691,32.7601826 C275.012346,31.9885777 275.576543,31.2009234 276.058025,30.5169728 C276.42716,29.9922814 276.609877,29.3503061 276.609877,28.7120345 C276.609877,28.5490715 276.591358,28.3898123 276.569136,28.2342567 C277.912346,27.6564789 279.351852,27.1416641 280.907407,26.7070962 C283.35679,26.0231456 285.91358,25.7836394 288.498765,25.9268493 C289.079012,29.3564789 287.422222,32.6527752 284.07284,33.7231456 M279.354321,63.1737629 C279.290123,63.1614172 279.225926,63.1503061 279.161728,63.1379604 C277.774074,62.6836394 276.462963,61.8243802 275.42963,60.8169728 C273.012346,58.4577135 272.14321,55.2515407 272.593827,51.9663555 C273.35679,46.4033925 278.322222,42.4725283 283.783951,42.2058617 C284.239506,42.1824049 284.688889,42.1959851 285.134568,42.2256147 C281.07037,48.2515407 278.733333,55.4614172 279.354321,63.1737629 M282.792593,54.4441333 C281.275309,54.7663555 280.839506,56.4466024 282.097531,57.3774666 C282.892593,57.9651209 284.269136,58.3367259 285.307407,58.0663555 C286.993827,59.8194419 286.27037,61.5824049 283.734568,62.7836394 C282.518519,63.3601826 281.138272,63.5145036 279.816049,63.2626518 C279.809877,63.2614172 279.804938,63.2601826 279.798765,63.2589481 C279.177778,55.6107999 281.566667,48.3416641 285.71358,42.2787012 C290.832099,42.8712938 295.228395,46.7577135 296.650617,51.7441333 C297.392593,54.3441333 297.335802,56.9503061 296.650617,59.3922814 C294.780247,64.8009234 289.666667,69.4663555 280.988889,69.5663555 C280.520988,68.0182073 280.18642,66.476232 279.974074,64.9453678 C282.604938,65.4428987 285.458025,64.9169728 287.14321,62.6490715 C289.355556,59.6712938 287.016049,53.547837 282.792593,54.4441333 M290.596296,26.1268493 C293.776543,26.5552444 296.969136,27.5466024 300.032099,29.0046271 C294.719753,31.7453678 289.837037,35.830553 286.133333,40.8206765 C281.52963,40.2206765 276.706173,41.8293184 273.625926,45.7564789 C268.911111,51.7663555 270.476543,61.0774666 277.74321,64.2614172 C278.309877,64.5095654 278.91358,64.7107999 279.533333,64.8564789 C279.74321,66.3984543 280.067901,67.9564789 280.52716,69.5280839 C271.233333,68.6540098 264.639506,61.4416641 262.816049,53.0638864 C263.734568,52.5157382 264.358025,51.521911 264.358025,50.3787012 C264.358025,49.0416641 263.511111,47.9046271 262.32716,47.4552444 C262.588889,41.1811703 265.606173,34.8959851 272.169136,30.5799357 C273.523457,33.4688246 278.430864,36.3638864 284.151852,34.3626518 C288.516049,32.8354913 290.544444,29.602158 290.596296,26.1268493 M321.393827,63.2589481 C321.387654,63.2601826 321.382716,63.2614172 321.376543,63.2626518 C320.054321,63.5145036 318.674074,63.3601826 317.458025,62.7836394 C314.922222,61.5824049 314.198765,59.8194419 315.885185,58.0663555 C316.923457,58.3367259 318.3,57.9651209 319.095062,57.3774666 C320.353086,56.4466024 319.917284,54.7663555 318.4,54.4441333 C314.176543,53.547837 311.837037,59.6712938 314.049383,62.6490715 C315.734568,64.9169728 318.587654,65.4428987 321.218519,64.9453678 C321.006173,66.476232 320.671605,68.0182073 320.203704,69.5663555 C311.525926,69.4663555 306.412346,64.8009234 304.541975,59.3922814 C303.85679,56.9503061 303.8,54.3441333 304.541975,51.7441333 C305.964198,46.7577135 310.360494,42.8712938 315.479012,42.2787012 C319.625926,48.3416641 322.014815,55.6107999 321.393827,63.2589481 M316.058025,42.2256147 C316.503704,42.1959851 316.953086,42.1824049 317.407407,42.2058617 C322.87037,42.4725283 327.835802,46.4033925 328.598765,51.9663555 C329.049383,55.2515407 328.180247,58.4577135 325.761728,60.8169728 C324.72963,61.8243802 323.418519,62.6836394 322.030864,63.1379604 C321.966667,63.1503061 321.902469,63.1614172 321.838272,63.1737629 C322.458025,55.4614172 320.120988,48.2515407 316.058025,42.2256147 M310.596296,26.1268493 C310.648148,29.602158 312.676543,32.8354913 317.040741,34.3626518 C322.761728,36.3638864 327.667901,33.4688246 329.023457,30.5799357 C335.58642,34.8959851 338.603704,41.1811703 338.865432,47.4552444 C337.681481,47.9046271 336.834568,49.0416641 336.834568,50.3787012 C336.834568,51.521911 337.458025,52.5157382 338.376543,53.0638864 C336.553086,61.4416641 329.959259,68.6540098 320.665432,69.5280839 C321.123457,67.9564789 321.449383,66.3984543 321.659259,64.8564789 C322.279012,64.7107999 322.882716,64.5095654 323.449383,64.2614172 C330.716049,61.0774666 332.280247,51.7663555 327.566667,45.7564789 C324.485185,41.8293184 319.662963,40.2206765 315.058025,40.8206765 C311.355556,35.830553 306.47284,31.7453678 301.160494,29.0046271 C304.223457,27.5466024 307.416049,26.5552444 310.596296,26.1268493 M312.692593,25.9268493 C315.279012,25.7836394 317.835802,26.0231456 320.285185,26.7070962 C321.840741,27.1416641 323.280247,27.6564789 324.623457,28.2342567 C324.6,28.3898123 324.581481,28.5490715 324.581481,28.7120345 C324.581481,29.3503061 324.765432,29.9922814 325.134568,30.5169728 C325.616049,31.2009234 326.180247,31.9885777 325.467901,32.7601826 C324.9,33.3749975 323.977778,33.630553 323.192593,33.8268493 C321.392593,34.276232 319.382716,34.3552444 317.582716,33.8663555 C317.42716,33.8231456 317.274074,33.7725283 317.119753,33.7231456 C313.77037,32.6527752 312.11358,29.3564789 312.692593,25.9268493 M322.154321,17.2033925 C322.285185,17.1700592 322.420988,17.1428987 322.553086,17.1107999 C334.514815,23.3626518 345.616049,27.3996888 356.487654,29.6268493 C350.797531,34.747837 345.398765,40.7984543 341.309877,47.5577135 C340.902469,47.3626518 340.451852,47.2428987 339.971605,47.2428987 C339.958025,47.2428987 339.944444,47.247837 339.92963,47.247837 C339.48642,40.5577135 336.222222,33.9787012 329.344444,29.6169728 C329.344444,29.6169728 329.354321,29.5169728 329.361728,29.3675901 C329.404938,29.1564789 329.432099,28.939195 329.432099,28.7120345 C329.432099,26.7367259 327.466667,25.0095654 325.52963,26.4675901 C325.193827,26.6651209 324.930864,26.9404296 324.824691,27.302158 C323.57037,26.7898123 322.232099,26.3379604 320.804938,25.9527752 C318.258025,25.2651209 315.571605,25.0453678 312.838272,25.2404296 C313.683951,21.9416641 316.623457,18.647837 322.154321,17.2033925 M356.640741,28.1700592 C344.782716,25.9046271 334.533333,21.7601826 323.908642,16.8169728 C333.881481,14.9132691 347.635802,17.9046271 356.640741,28.1700592 M500.361728,6.68240487 L600.488889,5.0120345 L495.559259,3.31820734 C494.781481,2.89721968 493.981481,2.5120345 493.158025,2.17005919 C484.945679,-1.24105192 476.295062,-0.0842617974 467.918519,1.91697277 C463.52963,2.96512092 459.279012,4.45771351 455.1,6.49351598 C451.423457,5.38857771 449.677778,5.24413326 446.919753,4.63549129 C428.683951,0.614503635 409.450617,2.07252833 391.759259,8.06141721 C386.992593,9.6428987 382.344444,11.5836394 377.85679,13.8638864 C377.612346,13.9873431 377.369136,14.1120345 377.124691,14.2367259 C376.837037,14.3861086 376.548148,14.5367259 376.260494,14.6885777 C370.091358,17.9120345 364.246914,21.7280839 358.854321,26.0861086 C358.792593,26.1070962 358.733333,26.1404296 358.679012,26.2009234 C358.646914,26.2354913 358.616049,26.2700592 358.583951,26.3046271 C358.306173,26.530553 358.023457,26.7515407 357.746914,26.9811703 C347.511111,15.3330222 331.302469,11.4453678 321.196296,14.0873431 C320.562963,14.2527752 319.960494,14.4552444 319.380247,14.6787012 C316.861728,13.4749975 314.307407,12.2379604 311.691358,10.9787012 C314.039506,12.4009234 316.345679,13.7317876 318.623457,14.993516 C313.676543,17.1898123 310.823457,21.4404296 310.604938,25.4910468 C307.240741,25.9996888 303.845679,27.1046271 300.596296,28.7145036 C297.346914,27.1046271 293.951852,25.9996888 290.587654,25.4910468 C290.369136,21.4404296 287.516049,17.1898123 282.569136,14.993516 C284.846914,13.7317876 287.153086,12.4009234 289.5,10.9787012 C286.883951,12.2379604 284.330864,13.4749975 281.812346,14.6787012 C281.230864,14.4552444 280.628395,14.2527752 279.995062,14.0873431 C269.890123,11.4453678 253.680247,15.3330222 243.445679,26.9811703 C243.169136,26.7515407 242.88642,26.530553 242.607407,26.3046271 C242.576543,26.2700592 242.544444,26.2354913 242.51358,26.2009234 C242.459259,26.1404296 242.4,26.1070962 242.338272,26.0861086 C236.945679,21.7280839 231.1,17.9120345 224.932099,14.6885777 C224.644444,14.5367259 224.355556,14.3861086 224.067901,14.2367259 C223.823457,14.1120345 223.580247,13.9873431 223.335802,13.8638864 C218.848148,11.5836394 214.2,9.6428987 209.433333,8.06141721 C191.741975,2.07252833 172.507407,0.614503635 154.27284,4.63549129 C151.51358,5.24413326 149.767901,5.38857771 146.092593,6.49351598 C141.91358,4.45771351 137.662963,2.96512092 133.274074,1.91697277 C124.897531,-0.0842617974 116.246914,-1.24105192 108.034568,2.17005919 C107.211111,2.5120345 106.411111,2.89721968 105.633333,3.31820734 L0.703703704,5.0120345 L100.830864,6.68240487 C96.8382716,10.2428987 94.0580247,15.0441333 93.2654321,20.5354913 C91.808642,30.6293184 98.0975309,41.4428987 107.798765,44.8206765 C117.380247,48.1564789 130.885185,42.4552444 128.740741,30.6749975 C126.548148,18.6194419 114.444444,19.6787012 111.548148,25.984874 C108.274074,33.1330222 114.480247,40.2009234 121.239506,36.7996888 C125.937037,35.1132691 120.238272,47.1169728 108.991358,43.0268493 C104.435802,41.3700592 100.453086,38.3107999 98.1555556,33.9898123 C93.4444444,25.1293184 96.517284,13.5428987 103.783951,7.00586166 C111.974074,-0.362039575 124.140741,0.615738203 133.825926,4.05524438 C137.130864,5.22931845 139.930864,6.27376289 143.133333,7.89845425 C138.348148,10.0959851 134.734568,14.5404296 133.693827,19.8577135 C132.704938,24.9083308 134.620988,30.3058617 139.228395,32.8824049 C143.348148,35.184874 148.48642,34.502158 151.485185,30.7428987 C154.245679,27.2836394 154.146914,21.8922814 150.3,19.221911 C146.023457,16.2527752 140.039506,19.4256147 140.82716,24.7367259 C140.839506,24.8194419 140.871605,24.8799357 140.912346,24.9280839 C141.145679,25.9083308 141.674074,26.8095654 142.522222,27.4466024 C144.462963,28.9046271 147.485185,28.4811703 148.37037,26.0589481 C149.120988,24.0033925 148.11358,21.1972197 145.749383,20.8675901 C143.81358,20.5959851 142.171605,21.9626518 141.619753,23.6737629 C141.645679,22.3107999 142.328395,20.9552444 143.471605,20.2070962 C145.330864,18.993516 147.991358,19.384874 149.776543,20.5404296 C152.265432,22.1515407 152.77284,25.2182073 151.250617,27.7317876 C149.875309,30.0046271 147.141975,31.5552444 144.469136,31.4330222 C141.02716,31.276232 138.216049,28.5330222 137.085185,25.4441333 C133.544444,15.7712938 144.545679,9.77993573 145.632099,9.40339252 C151.532099,12.5145036 157.34321,16.0206765 163.285185,18.9811703 C128.133333,43.1058617 159.092593,85.676232 182.312346,72.0404296 C185.374074,73.647837 188.567901,74.6107999 191.448148,74.8330222 C197.869136,75.3268493 205.730864,71.5589481 207.269136,64.830553 C208.261728,60.4885777 205.580247,55.1737629 200.841975,54.6996888 C197.422222,54.3577135 192.975309,56.2910468 193.566667,60.3651209 C193.616049,60.6873431 194.254321,62.6120345 195.760494,61.3638864 C193.890123,57.5194419 198.328395,55.1712938 201.323457,58.1243802 C203.812346,60.5725283 204.18642,65.2527752 198.659259,68.0503061 C195.974074,69.4095654 191.783951,69.2441333 187.58642,67.7675901 C188.091358,67.230553 188.590123,66.6737629 189.079012,66.0688246 C195.681481,57.8910468 192.961728,49.9280839 188.950617,45.9577135 C185.292593,42.3379604 179.355556,40.7688246 174.812346,43.0490715 C178.008642,34.1601826 185.18642,29.647837 193.328395,28.3490715 C200.711111,29.9033925 207.796296,30.976232 214.733333,31.4712938 C215.750617,31.9317876 216.738272,32.4317876 217.687654,32.9700592 C218.228395,33.276232 218.751852,33.6058617 219.266667,33.947837 C232.659259,43.9811703 235.11358,64.3861086 229.62963,79.8268493 C228.75679,82.1083308 227.72963,84.3095654 226.495062,86.3675901 C222.320988,93.093516 215.702469,98.293516 207.423457,98.4898123 C203.444444,98.5836394 199.071605,97.339195 196.283951,94.3749975 C194.141975,92.0959851 193.092593,88.6725283 194.112346,85.7157382 C194.877778,83.4959851 196.885185,81.6601826 199.222222,81.4317876 C201.560494,81.2046271 204.033333,82.8317876 204.453086,85.1416641 C203.298765,83.2947505 200.57284,82.6601826 198.720988,83.8070962 C196.87037,84.9540098 196.224691,87.6774666 197.365432,89.5330222 C198.351852,91.1379604 200.455556,91.9095654 202.28642,91.4663555 C204.118519,91.0243802 205.596296,89.4749975 206.107407,87.6626518 C206.944444,84.6972197 205.107407,81.3070962 202.250617,80.1527752 C199.395062,78.9984543 195.885185,80.0182073 193.881481,82.3577135 C190.680247,86.093516 191.590123,91.802158 194.430864,95.4626518 C201.571605,104.661417 216.083951,99.8861086 223.124691,93.2120345 C227.619753,88.9503061 230.57037,83.2490715 232.240741,77.1070962 C233.25679,73.8984543 234.038272,70.5972197 234.719753,67.3206765 C236.255556,71.9922814 238.467901,76.4256147 241.706173,80.1749975 C247.275309,86.6243802 254.674074,91.4120345 262.650617,94.330553 C268.849383,96.5972197 275.467901,97.7799357 282.07284,97.6774666 C285.312346,97.6280839 288.550617,97.2651209 291.71358,96.5540098 C293.277778,96.2033925 294.823457,95.7663555 296.339506,95.2416641 C297.045679,94.9972197 300.017284,93.2824049 300.593827,93.4922814 C300.596296,93.493516 300.596296,92.5330222 300.596296,92.2922814 C300.596296,92.5330222 300.596296,93.493516 300.598765,93.4922814 C301.175309,93.2824049 304.145679,94.9972197 304.853086,95.2416641 C306.367901,95.7663555 307.91358,96.2033925 309.479012,96.5540098 C312.641975,97.2651209 315.880247,97.6280839 319.119753,97.6774666 C325.724691,97.7799357 332.34321,96.5972197 338.541975,94.330553 C346.518519,91.4120345 353.917284,86.6243802 359.48642,80.1749975 C362.723457,76.4256147 364.937037,71.9922814 366.47284,67.3206765 C367.154321,70.5972197 367.935802,73.8984543 368.951852,77.1070962 C370.622222,83.2490715 373.57284,88.9503061 378.067901,93.2120345 C385.108642,99.8861086 399.620988,104.661417 406.761728,95.4626518 C409.602469,91.802158 410.511111,86.093516 407.311111,82.3577135 C405.307407,80.0182073 401.797531,78.9984543 398.941975,80.1527752 C396.085185,81.3070962 394.248148,84.6972197 395.085185,87.6626518 C395.596296,89.4749975 397.074074,91.0243802 398.906173,91.4663555 C400.737037,91.9095654 402.840741,91.1379604 403.82716,89.5330222 C404.967901,87.6774666 404.322222,84.9540098 402.471605,83.8070962 C400.619753,82.6601826 397.893827,83.2947505 396.739506,85.1416641 C397.159259,82.8317876 399.632099,81.2046271 401.969136,81.4317876 C404.307407,81.6601826 406.314815,83.4959851 407.080247,85.7157382 C408.1,88.6725283 407.050617,92.0959851 404.907407,94.3749975 C402.120988,97.339195 397.748148,98.5836394 393.769136,98.4898123 C385.490123,98.293516 378.871605,93.093516 374.697531,86.3675901 C373.462963,84.3095654 372.435802,82.1083308 371.562963,79.8268493 C366.079012,64.3861086 368.532099,43.9811703 381.925926,33.947837 C382.440741,33.6058617 382.964198,33.276232 383.504938,32.9700592 C384.454321,32.4317876 385.441975,31.9317876 386.459259,31.4712938 C393.396296,30.976232 400.480247,29.9033925 407.864198,28.3490715 C416.006173,29.647837 423.183951,34.1601826 426.380247,43.0490715 C421.837037,40.7688246 415.9,42.3379604 412.240741,45.9577135 C408.230864,49.9280839 405.509877,57.8910468 412.112346,66.0688246 C412.601235,66.6737629 413.101235,67.230553 413.606173,67.7675901 C409.408642,69.2441333 405.218519,69.4095654 402.533333,68.0503061 C397.006173,65.2527752 397.380247,60.5725283 399.869136,58.1243802 C402.864198,55.1712938 407.301235,57.5194419 405.432099,61.3638864 C406.938272,62.6120345 407.576543,60.6873431 407.625926,60.3651209 C408.217284,56.2910468 403.77037,54.3577135 400.350617,54.6996888 C395.611111,55.1737629 392.930864,60.4885777 393.923457,64.830553 C395.461728,71.5589481 403.323457,75.3268493 409.744444,74.8330222 C412.623457,74.6107999 415.818519,73.647837 418.880247,72.0404296 C442.1,85.676232 473.059259,43.1058617 437.907407,18.9811703 C443.849383,16.0206765 449.660494,12.5145036 455.560494,9.40339252 C456.646914,9.77993573 467.648148,15.7712938 464.107407,25.4441333 C462.976543,28.5330222 460.164198,31.276232 456.723457,31.4330222 C454.050617,31.5552444 451.317284,30.0046271 449.941975,27.7317876 C448.419753,25.2182073 448.925926,22.1515407 451.416049,20.5404296 C453.201235,19.384874 455.861728,18.993516 457.720988,20.2070962 C458.864198,20.9552444 459.546914,22.3107999 459.57284,23.6737629 C459.020988,21.9626518 457.379012,20.5959851 455.44321,20.8675901 C453.079012,21.1972197 452.071605,24.0033925 452.822222,26.0589481 C453.707407,28.4811703 456.72963,28.9046271 458.67037,27.4466024 C459.518519,26.8095654 460.046914,25.9083308 460.280247,24.9280839 C460.320988,24.8799357 460.353086,24.8194419 460.365432,24.7367259 C461.153086,19.4256147 455.169136,16.2527752 450.891358,19.221911 C447.045679,21.8922814 446.945679,27.2836394 449.706173,30.7428987 C452.706173,34.502158 457.844444,35.184874 461.962963,32.8824049 C466.571605,30.3058617 468.487654,24.9083308 467.498765,19.8577135 C466.458025,14.5404296 462.844444,10.0959851 458.058025,7.89845425 C461.261728,6.27376289 464.060494,5.22931845 467.366667,4.05524438 C477.051852,0.615738203 489.218519,-0.362039575 497.408642,7.00586166 C504.675309,13.5428987 507.748148,25.1293184 503.037037,33.9898123 C500.739506,38.3107999 496.75679,41.3700592 492.2,43.0268493 C480.954321,47.1169728 475.255556,35.1132691 479.953086,36.7996888 C486.712346,40.2009234 492.918519,33.1330222 489.644444,25.984874 C486.748148,19.6787012 474.64321,18.6194419 472.451852,30.6749975 C470.307407,42.4552444 483.812346,48.1564789 493.393827,44.8206765 C503.095062,41.4428987 509.383951,30.6293184 507.92716,20.5354913 C507.134568,15.0441333 504.354321,10.2428987 500.361728,6.68240487" id="Fill-1"></path>
                </g>
            </g>
        </g>
    </g>
</svg>