<?xml version="1.0" encoding="UTF-8" standalone="no"?>
<svg width="600px" height="102px" viewBox="0 0 600 102" version="1.1" xmlns="http://www.w3.org/2000/svg" xmlns:xlink="http://www.w3.org/1999/xlink">
    <g id="Welcome" stroke="none" stroke-width="1" fill="none" fill-rule="evenodd">
        <g id="RSVP---v4" transform="translate(-208.000000, -138.000000)" fill="#F4C078">
            <g id="Border-3" transform="translate(212.000000, 138.000000)">
                <g id="Page-1" transform="translate(300.000000, 50.617284) rotate(180.000000) translate(-300.000000, -50.617284) ">
                    <path d="M438.690123,17.5367259 C437.881481,17.0379604 437.051852,16.5453678 436.181481,16.0663555 C414.508642,4.13919499 380.282716,12.1231456 362.166667,27.2996888 C366.974074,23.2206765 372.150617,19.5972197 377.64321,16.4996888 C382.960494,13.5700592 388.532099,11.0972197 394.288889,9.12314561 C396.097531,8.50215796 397.923457,7.93425672 399.761728,7.41079993 C418.060494,2.4083308 437.612346,2.76141721 455.828395,8.49968882 C450.065432,11.4256147 444.411111,14.684874 438.690123,17.5367259 M424.091358,70.7490715 C431.667901,65.8490715 437.654321,56.8453678 434.538272,45.1009234 C432.066667,35.7898123 425.306173,29.7996888 417.067901,26.9577135 C420.77284,26.0700592 424.559259,25.0749975 428.449383,23.9811703 C431.112346,23.2330222 433.720988,22.2589481 436.296296,21.1416641 C468.839506,42.3330222 444.022222,78.4293184 424.091358,70.7490715 M418.323457,67.0873431 C417.654321,66.4651209 417,65.7787012 416.362963,65.021911 C412.406173,60.3182073 413.118519,53.1033925 416.398765,48.8688246 C419.461728,44.9120345 424.575309,43.3280839 428.15679,46.384874 C430.203704,48.1317876 430.92716,50.9490715 430.35679,53.5799357 C428.964198,60.0194419 423.816049,64.6712938 418.323457,67.0873431 M386.725926,29.584874 C386.560494,29.6737629 386.4,29.7700592 386.235802,29.8614172 C382.238272,30.0453678 378.608642,30.0601826 375.522222,29.947837 C371.165432,29.7885777 367.064198,29.3836394 363.145679,28.776232 C363.192593,28.7367259 363.239506,28.6959851 363.285185,28.6564789 C381.330864,13.530553 411.875309,7.47252833 432.869136,19.0787012 C433.265432,19.2984543 433.640741,19.5231456 434.023457,19.7466024 C432.219753,20.5490715 430.406173,21.2959851 428.574074,21.9564789 C423.887654,23.6453678 419.039506,25.0157382 414.207407,26.1145036 C405.245679,23.8824049 395.007407,25.093516 386.725926,29.584874 M370.425926,45.9626518 C370.228395,46.4280839 370.035802,47.0601826 369.846914,47.8070962 C369.723457,46.6663555 369.555556,45.5354913 369.32963,44.4206765 C368.225926,38.984874 366.137037,34.3095654 363.401235,30.3527752 C369.981481,31.4453678 376.508642,31.884874 383.119753,31.7589481 C377.237037,35.6626518 372.676543,40.6416641 370.425926,45.9626518 M359.916049,78.7379604 C347.061728,94.4601826 323.001235,100.33796 304.933333,92.8243802 C312.644444,88.7453678 319.046914,81.9898123 322.775309,72.1651209 C333.285185,71.6182073 340.714815,63.1379604 342.54321,53.4712938 C342.685185,53.4910468 342.825926,53.5145036 342.971605,53.5145036 C344.692593,53.5145036 346.102469,52.1046271 346.102469,50.3787012 C346.102469,49.7404296 345.907407,49.1466024 345.577778,48.6515407 C349.835802,41.7070962 355.477778,35.5058617 361.365432,30.3132691 C364.350617,34.339195 366.660494,39.3095654 367.88642,45.3527752 C370.141975,56.4663555 367.158025,69.8787012 359.916049,78.7379604 M303.596296,92.2379604 C295.466667,88.4922814 288.687654,81.9206765 284.903704,72.1811703 C285.046914,72.184874 285.187654,72.1947505 285.332099,72.1959851 C286.798765,72.1638864 288.267901,72.0009234 289.697531,71.6626518 C301.062963,68.9737629 305.638272,53.2836394 297.44321,44.9169728 C295.298765,42.7280839 292.564198,41.3799357 289.71358,40.8922814 C293.423457,35.9552444 298.292593,31.9120345 303.592593,29.276232 C303.596296,29.2774666 303.596296,28.8466024 303.596296,28.739195 C303.596296,28.8466024 303.596296,29.2774666 303.6,29.276232 C308.9,31.9120345 313.769136,35.9552444 317.479012,40.8922814 C314.628395,41.3799357 311.893827,42.7280839 309.748148,44.9169728 C301.553086,53.2836394 306.12963,68.9737629 317.495062,71.6626518 C318.924691,72.0009234 320.392593,72.1638864 321.860494,72.1959851 C322.004938,72.1947505 322.145679,72.184874 322.287654,72.1811703 C318.504938,81.9206765 311.725926,88.4922814 303.596296,92.2379604 M247.276543,78.7379604 C240.034568,69.8787012 237.050617,56.4663555 239.306173,45.3527752 C240.532099,39.3095654 242.841975,34.339195 245.82716,30.3132691 C251.714815,35.5058617 257.35679,41.7070962 261.614815,48.6515407 C261.285185,49.1466024 261.090123,49.7404296 261.090123,50.3787012 C261.090123,52.1046271 262.5,53.5145036 264.219753,53.5145036 C264.366667,53.5145036 264.507407,53.4910468 264.649383,53.4712938 C266.477778,63.1379604 273.907407,71.6182073 284.417284,72.1651209 C288.144444,81.9898123 294.548148,88.7453678 302.259259,92.8243802 C284.190123,100.33796 260.130864,94.4601826 247.276543,78.7379604 M237.345679,47.8070962 C237.15679,47.0601826 236.964198,46.4280839 236.766667,45.9626518 C234.516049,40.6416641 229.955556,35.6626518 224.071605,31.7589481 C230.683951,31.884874 237.211111,31.4453678 243.791358,30.3527752 C241.055556,34.3095654 238.966667,38.984874 237.862963,44.4206765 C237.637037,45.5354913 237.469136,46.6663555 237.345679,47.8070962 M220.95679,29.8614172 C220.792593,29.7700592 220.632099,29.6737629 220.466667,29.584874 C212.185185,25.093516 201.946914,23.8824049 192.985185,26.1145036 C188.153086,25.0157382 183.304938,23.6453678 178.618519,21.9564789 C176.78642,21.2959851 174.97284,20.5490715 173.169136,19.7466024 C173.551852,19.5231456 173.92716,19.2984543 174.323457,19.0787012 C195.317284,7.47252833 225.861728,13.530553 243.907407,28.6564789 C243.953086,28.6959851 244,28.7367259 244.046914,28.776232 C240.128395,29.3836394 236.02716,29.7885777 231.67037,29.947837 C228.583951,30.0601826 224.953086,30.0453678 220.95679,29.8614172 M172.654321,45.1009234 C169.538272,56.8453678 175.524691,65.8490715 183.101235,70.7490715 C163.17037,78.4293184 138.353086,42.3330222 170.895062,21.1416641 C173.471605,22.2589481 176.080247,23.2330222 178.74321,23.9811703 C182.633333,25.0749975 186.419753,26.0700592 190.124691,26.9577135 C181.88642,29.7996888 175.124691,35.7898123 172.654321,45.1009234 M179.035802,46.384874 C182.617284,43.3280839 187.730864,44.9120345 190.793827,48.8688246 C194.074074,53.1033925 194.78642,60.3182073 190.82963,65.021911 C190.192593,65.7787012 189.538272,66.4651209 188.869136,67.0873431 C183.376543,64.6712938 178.228395,60.0194419 176.834568,53.5799357 C176.265432,50.9490715 176.988889,48.1317876 179.035802,46.384874 M151.364198,8.49968882 C169.580247,2.76141721 189.132099,2.4083308 207.430864,7.41079993 C209.269136,7.93425672 211.095062,8.50215796 212.903704,9.12314561 C218.660494,11.0972197 224.230864,13.5700592 229.549383,16.4996888 C235.041975,19.5972197 240.218519,23.2206765 245.025926,27.2996888 C226.909877,12.1231456 192.683951,4.13919499 171.011111,16.0663555 C170.140741,16.5453678 169.311111,17.0379604 168.502469,17.5367259 C162.780247,14.684874 157.12716,11.4256147 151.364198,8.49968882 M280.283951,16.8169728 C269.659259,21.7601826 259.409877,25.9046271 247.551852,28.1700592 C256.55679,17.9046271 270.311111,14.9132691 280.283951,16.8169728 M282.037037,17.2033925 C287.569136,18.647837 290.508642,21.9416641 291.354321,25.2404296 C288.620988,25.0453678 285.934568,25.2651209 283.387654,25.9527752 C281.960494,26.3379604 280.620988,26.7898123 279.367901,27.302158 C279.261728,26.9404296 278.997531,26.6651209 278.662963,26.4675901 C276.725926,25.0095654 274.759259,26.7367259 274.759259,28.7120345 C274.759259,28.939195 274.787654,29.1564789 274.830864,29.3675901 C274.838272,29.5169728 274.848148,29.6169728 274.848148,29.6169728 C267.97037,33.9787012 264.706173,40.5577135 264.262963,47.247837 C264.248148,47.247837 264.234568,47.2428987 264.219753,47.2428987 C263.740741,47.2428987 263.290123,47.3626518 262.881481,47.5577135 C258.793827,40.7984543 253.395062,34.747837 247.704938,29.6268493 C258.576543,27.3996888 269.677778,23.3626518 281.639506,17.1107999 C281.77037,17.1428987 281.907407,17.1700592 282.037037,17.2033925 M287.07284,33.7231456 C286.918519,33.7725283 286.765432,33.8231456 286.608642,33.8663555 C284.809877,34.3552444 282.8,34.276232 281,33.8268493 C280.214815,33.630553 279.292593,33.3749975 278.724691,32.7601826 C278.012346,31.9885777 278.576543,31.2009234 279.058025,30.5169728 C279.42716,29.9922814 279.609877,29.3503061 279.609877,28.7120345 C279.609877,28.5490715 279.591358,28.3898123 279.569136,28.2342567 C280.912346,27.6564789 282.351852,27.1416641 283.907407,26.7070962 C286.35679,26.0231456 288.91358,25.7836394 291.498765,25.9268493 C292.079012,29.3564789 290.422222,32.6527752 287.07284,33.7231456 M282.354321,63.1737629 C282.290123,63.1614172 282.225926,63.1503061 282.161728,63.1379604 C280.774074,62.6836394 279.462963,61.8243802 278.42963,60.8169728 C276.012346,58.4577135 275.14321,55.2515407 275.593827,51.9663555 C276.35679,46.4033925 281.322222,42.4725283 286.783951,42.2058617 C287.239506,42.1824049 287.688889,42.1959851 288.134568,42.2256147 C284.07037,48.2515407 281.733333,55.4614172 282.354321,63.1737629 M285.792593,54.4441333 C284.275309,54.7663555 283.839506,56.4466024 285.097531,57.3774666 C285.892593,57.9651209 287.269136,58.3367259 288.307407,58.0663555 C289.993827,59.8194419 289.27037,61.5824049 286.734568,62.7836394 C285.518519,63.3601826 284.138272,63.5145036 282.816049,63.2626518 C282.809877,63.2614172 282.804938,63.2601826 282.798765,63.2589481 C282.177778,55.6107999 284.566667,48.3416641 288.71358,42.2787012 C293.832099,42.8712938 298.228395,46.7577135 299.650617,51.7441333 C300.392593,54.3441333 300.335802,56.9503061 299.650617,59.3922814 C297.780247,64.8009234 292.666667,69.4663555 283.988889,69.5663555 C283.520988,68.0182073 283.18642,66.476232 282.974074,64.9453678 C285.604938,65.4428987 288.458025,64.9169728 290.14321,62.6490715 C292.355556,59.6712938 290.016049,53.547837 285.792593,54.4441333 M293.596296,26.1268493 C296.776543,26.5552444 299.969136,27.5466024 303.032099,29.0046271 C297.719753,31.7453678 292.837037,35.830553 289.133333,40.8206765 C284.52963,40.2206765 279.706173,41.8293184 276.625926,45.7564789 C271.911111,51.7663555 273.476543,61.0774666 280.74321,64.2614172 C281.309877,64.5095654 281.91358,64.7107999 282.533333,64.8564789 C282.74321,66.3984543 283.067901,67.9564789 283.52716,69.5280839 C274.233333,68.6540098 267.639506,61.4416641 265.816049,53.0638864 C266.734568,52.5157382 267.358025,51.521911 267.358025,50.3787012 C267.358025,49.0416641 266.511111,47.9046271 265.32716,47.4552444 C265.588889,41.1811703 268.606173,34.8959851 275.169136,30.5799357 C276.523457,33.4688246 281.430864,36.3638864 287.151852,34.3626518 C291.516049,32.8354913 293.544444,29.602158 293.596296,26.1268493 M324.393827,63.2589481 C324.387654,63.2601826 324.382716,63.2614172 324.376543,63.2626518 C323.054321,63.5145036 321.674074,63.3601826 320.458025,62.7836394 C317.922222,61.5824049 317.198765,59.8194419 318.885185,58.0663555 C319.923457,58.3367259 321.3,57.9651209 322.095062,57.3774666 C323.353086,56.4466024 322.917284,54.7663555 321.4,54.4441333 C317.176543,53.547837 314.837037,59.6712938 317.049383,62.6490715 C318.734568,64.9169728 321.587654,65.4428987 324.218519,64.9453678 C324.006173,66.476232 323.671605,68.0182073 323.203704,69.5663555 C314.525926,69.4663555 309.412346,64.8009234 307.541975,59.3922814 C306.85679,56.9503061 306.8,54.3441333 307.541975,51.7441333 C308.964198,46.7577135 313.360494,42.8712938 318.479012,42.2787012 C322.625926,48.3416641 325.014815,55.6107999 324.393827,63.2589481 M319.058025,42.2256147 C319.503704,42.1959851 319.953086,42.1824049 320.407407,42.2058617 C325.87037,42.4725283 330.835802,46.4033925 331.598765,51.9663555 C332.049383,55.2515407 331.180247,58.4577135 328.761728,60.8169728 C327.72963,61.8243802 326.418519,62.6836394 325.030864,63.1379604 C324.966667,63.1503061 324.902469,63.1614172 324.838272,63.1737629 C325.458025,55.4614172 323.120988,48.2515407 319.058025,42.2256147 M313.596296,26.1268493 C313.648148,29.602158 315.676543,32.8354913 320.040741,34.3626518 C325.761728,36.3638864 330.667901,33.4688246 332.023457,30.5799357 C338.58642,34.8959851 341.603704,41.1811703 341.865432,47.4552444 C340.681481,47.9046271 339.834568,49.0416641 339.834568,50.3787012 C339.834568,51.521911 340.458025,52.5157382 341.376543,53.0638864 C339.553086,61.4416641 332.959259,68.6540098 323.665432,69.5280839 C324.123457,67.9564789 324.449383,66.3984543 324.659259,64.8564789 C325.279012,64.7107999 325.882716,64.5095654 326.449383,64.2614172 C333.716049,61.0774666 335.280247,51.7663555 330.566667,45.7564789 C327.485185,41.8293184 322.662963,40.2206765 318.058025,40.8206765 C314.355556,35.830553 309.47284,31.7453678 304.160494,29.0046271 C307.223457,27.5466024 310.416049,26.5552444 313.596296,26.1268493 M315.692593,25.9268493 C318.279012,25.7836394 320.835802,26.0231456 323.285185,26.7070962 C324.840741,27.1416641 326.280247,27.6564789 327.623457,28.2342567 C327.6,28.3898123 327.581481,28.5490715 327.581481,28.7120345 C327.581481,29.3503061 327.765432,29.9922814 328.134568,30.5169728 C328.616049,31.2009234 329.180247,31.9885777 328.467901,32.7601826 C327.9,33.3749975 326.977778,33.630553 326.192593,33.8268493 C324.392593,34.276232 322.382716,34.3552444 320.582716,33.8663555 C320.42716,33.8231456 320.274074,33.7725283 320.119753,33.7231456 C316.77037,32.6527752 315.11358,29.3564789 315.692593,25.9268493 M325.154321,17.2033925 C325.285185,17.1700592 325.420988,17.1428987 325.553086,17.1107999 C337.514815,23.3626518 348.616049,27.3996888 359.487654,29.6268493 C353.797531,34.747837 348.398765,40.7984543 344.309877,47.5577135 C343.902469,47.3626518 343.451852,47.2428987 342.971605,47.2428987 C342.958025,47.2428987 342.944444,47.247837 342.92963,47.247837 C342.48642,40.5577135 339.222222,33.9787012 332.344444,29.6169728 C332.344444,29.6169728 332.354321,29.5169728 332.361728,29.3675901 C332.404938,29.1564789 332.432099,28.939195 332.432099,28.7120345 C332.432099,26.7367259 330.466667,25.0095654 328.52963,26.4675901 C328.193827,26.6651209 327.930864,26.9404296 327.824691,27.302158 C326.57037,26.7898123 325.232099,26.3379604 323.804938,25.9527752 C321.258025,25.2651209 318.571605,25.0453678 315.838272,25.2404296 C316.683951,21.9416641 319.623457,18.647837 325.154321,17.2033925 M359.640741,28.1700592 C347.782716,25.9046271 337.533333,21.7601826 326.908642,16.8169728 C336.881481,14.9132691 350.635802,17.9046271 359.640741,28.1700592 M503.361728,6.68240487 L603.488889,5.0120345 L498.559259,3.31820734 C497.781481,2.89721968 496.981481,2.5120345 496.158025,2.17005919 C487.945679,-1.24105192 479.295062,-0.0842617974 470.918519,1.91697277 C466.52963,2.96512092 462.279012,4.45771351 458.1,6.49351598 C454.423457,5.38857771 452.677778,5.24413326 449.919753,4.63549129 C431.683951,0.614503635 412.450617,2.07252833 394.759259,8.06141721 C389.992593,9.6428987 385.344444,11.5836394 380.85679,13.8638864 C380.612346,13.9873431 380.369136,14.1120345 380.124691,14.2367259 C379.837037,14.3861086 379.548148,14.5367259 379.260494,14.6885777 C373.091358,17.9120345 367.246914,21.7280839 361.854321,26.0861086 C361.792593,26.1070962 361.733333,26.1404296 361.679012,26.2009234 C361.646914,26.2354913 361.616049,26.2700592 361.583951,26.3046271 C361.306173,26.530553 361.023457,26.7515407 360.746914,26.9811703 C350.511111,15.3330222 334.302469,11.4453678 324.196296,14.0873431 C323.562963,14.2527752 322.960494,14.4552444 322.380247,14.6787012 C319.861728,13.4749975 317.307407,12.2379604 314.691358,10.9787012 C317.039506,12.4009234 319.345679,13.7317876 321.623457,14.993516 C316.676543,17.1898123 313.823457,21.4404296 313.604938,25.4910468 C310.240741,25.9996888 306.845679,27.1046271 303.596296,28.7145036 C300.346914,27.1046271 296.951852,25.9996888 293.587654,25.4910468 C293.369136,21.4404296 290.516049,17.1898123 285.569136,14.993516 C287.846914,13.7317876 290.153086,12.4009234 292.5,10.9787012 C289.883951,12.2379604 287.330864,13.4749975 284.812346,14.6787012 C284.230864,14.4552444 283.628395,14.2527752 282.995062,14.0873431 C272.890123,11.4453678 256.680247,15.3330222 246.445679,26.9811703 C246.169136,26.7515407 245.88642,26.530553 245.607407,26.3046271 C245.576543,26.2700592 245.544444,26.2354913 245.51358,26.2009234 C245.459259,26.1404296 245.4,26.1070962 245.338272,26.0861086 C239.945679,21.7280839 234.1,17.9120345 227.932099,14.6885777 C227.644444,14.5367259 227.355556,14.3861086 227.067901,14.2367259 C226.823457,14.1120345 226.580247,13.9873431 226.335802,13.8638864 C221.848148,11.5836394 217.2,9.6428987 212.433333,8.06141721 C194.741975,2.07252833 175.507407,0.614503635 157.27284,4.63549129 C154.51358,5.24413326 152.767901,5.38857771 149.092593,6.49351598 C144.91358,4.45771351 140.662963,2.96512092 136.274074,1.91697277 C127.897531,-0.0842617974 119.246914,-1.24105192 111.034568,2.17005919 C110.211111,2.5120345 109.411111,2.89721968 108.633333,3.31820734 L3.7037037,5.0120345 L103.830864,6.68240487 C99.8382716,10.2428987 97.0580247,15.0441333 96.2654321,20.5354913 C94.808642,30.6293184 101.097531,41.4428987 110.798765,44.8206765 C120.380247,48.1564789 133.885185,42.4552444 131.740741,30.6749975 C129.548148,18.6194419 117.444444,19.6787012 114.548148,25.984874 C111.274074,33.1330222 117.480247,40.2009234 124.239506,36.7996888 C128.937037,35.1132691 123.238272,47.1169728 111.991358,43.0268493 C107.435802,41.3700592 103.453086,38.3107999 101.155556,33.9898123 C96.4444444,25.1293184 99.517284,13.5428987 106.783951,7.00586166 C114.974074,-0.362039575 127.140741,0.615738203 136.825926,4.05524438 C140.130864,5.22931845 142.930864,6.27376289 146.133333,7.89845425 C141.348148,10.0959851 137.734568,14.5404296 136.693827,19.8577135 C135.704938,24.9083308 137.620988,30.3058617 142.228395,32.8824049 C146.348148,35.184874 151.48642,34.502158 154.485185,30.7428987 C157.245679,27.2836394 157.146914,21.8922814 153.3,19.221911 C149.023457,16.2527752 143.039506,19.4256147 143.82716,24.7367259 C143.839506,24.8194419 143.871605,24.8799357 143.912346,24.9280839 C144.145679,25.9083308 144.674074,26.8095654 145.522222,27.4466024 C147.462963,28.9046271 150.485185,28.4811703 151.37037,26.0589481 C152.120988,24.0033925 151.11358,21.1972197 148.749383,20.8675901 C146.81358,20.5959851 145.171605,21.9626518 144.619753,23.6737629 C144.645679,22.3107999 145.328395,20.9552444 146.471605,20.2070962 C148.330864,18.993516 150.991358,19.384874 152.776543,20.5404296 C155.265432,22.1515407 155.77284,25.2182073 154.250617,27.7317876 C152.875309,30.0046271 150.141975,31.5552444 147.469136,31.4330222 C144.02716,31.276232 141.216049,28.5330222 140.085185,25.4441333 C136.544444,15.7712938 147.545679,9.77993573 148.632099,9.40339252 C154.532099,12.5145036 160.34321,16.0206765 166.285185,18.9811703 C131.133333,43.1058617 162.092593,85.676232 185.312346,72.0404296 C188.374074,73.647837 191.567901,74.6107999 194.448148,74.8330222 C200.869136,75.3268493 208.730864,71.5589481 210.269136,64.830553 C211.261728,60.4885777 208.580247,55.1737629 203.841975,54.6996888 C200.422222,54.3577135 195.975309,56.2910468 196.566667,60.3651209 C196.616049,60.6873431 197.254321,62.6120345 198.760494,61.3638864 C196.890123,57.5194419 201.328395,55.1712938 204.323457,58.1243802 C206.812346,60.5725283 207.18642,65.2527752 201.659259,68.0503061 C198.974074,69.4095654 194.783951,69.2441333 190.58642,67.7675901 C191.091358,67.230553 191.590123,66.6737629 192.079012,66.0688246 C198.681481,57.8910468 195.961728,49.9280839 191.950617,45.9577135 C188.292593,42.3379604 182.355556,40.7688246 177.812346,43.0490715 C181.008642,34.1601826 188.18642,29.647837 196.328395,28.3490715 C203.711111,29.9033925 210.796296,30.976232 217.733333,31.4712938 C218.750617,31.9317876 219.738272,32.4317876 220.687654,32.9700592 C221.228395,33.276232 221.751852,33.6058617 222.266667,33.947837 C235.659259,43.9811703 238.11358,64.3861086 232.62963,79.8268493 C231.75679,82.1083308 230.72963,84.3095654 229.495062,86.3675901 C225.320988,93.093516 218.702469,98.293516 210.423457,98.4898123 C206.444444,98.5836394 202.071605,97.339195 199.283951,94.3749975 C197.141975,92.0959851 196.092593,88.6725283 197.112346,85.7157382 C197.877778,83.4959851 199.885185,81.6601826 202.222222,81.4317876 C204.560494,81.2046271 207.033333,82.8317876 207.453086,85.1416641 C206.298765,83.2947505 203.57284,82.6601826 201.720988,83.8070962 C199.87037,84.9540098 199.224691,87.6774666 200.365432,89.5330222 C201.351852,91.1379604 203.455556,91.9095654 205.28642,91.4663555 C207.118519,91.0243802 208.596296,89.4749975 209.107407,87.6626518 C209.944444,84.6972197 208.107407,81.3070962 205.250617,80.1527752 C202.395062,78.9984543 198.885185,80.0182073 196.881481,82.3577135 C193.680247,86.093516 194.590123,91.802158 197.430864,95.4626518 C204.571605,104.661417 219.083951,99.8861086 226.124691,93.2120345 C230.619753,88.9503061 233.57037,83.2490715 235.240741,77.1070962 C236.25679,73.8984543 237.038272,70.5972197 237.719753,67.3206765 C239.255556,71.9922814 241.467901,76.4256147 244.706173,80.1749975 C250.275309,86.6243802 257.674074,91.4120345 265.650617,94.330553 C271.849383,96.5972197 278.467901,97.7799357 285.07284,97.6774666 C288.312346,97.6280839 291.550617,97.2651209 294.71358,96.5540098 C296.277778,96.2033925 297.823457,95.7663555 299.339506,95.2416641 C300.045679,94.9972197 303.017284,93.2824049 303.593827,93.4922814 C303.596296,93.493516 303.596296,92.5330222 303.596296,92.2922814 C303.596296,92.5330222 303.596296,93.493516 303.598765,93.4922814 C304.175309,93.2824049 307.145679,94.9972197 307.853086,95.2416641 C309.367901,95.7663555 310.91358,96.2033925 312.479012,96.5540098 C315.641975,97.2651209 318.880247,97.6280839 322.119753,97.6774666 C328.724691,97.7799357 335.34321,96.5972197 341.541975,94.330553 C349.518519,91.4120345 356.917284,86.6243802 362.48642,80.1749975 C365.723457,76.4256147 367.937037,71.9922814 369.47284,67.3206765 C370.154321,70.5972197 370.935802,73.8984543 371.951852,77.1070962 C373.622222,83.2490715 376.57284,88.9503061 381.067901,93.2120345 C388.108642,99.8861086 402.620988,104.661417 409.761728,95.4626518 C412.602469,91.802158 413.511111,86.093516 410.311111,82.3577135 C408.307407,80.0182073 404.797531,78.9984543 401.941975,80.1527752 C399.085185,81.3070962 397.248148,84.6972197 398.085185,87.6626518 C398.596296,89.4749975 400.074074,91.0243802 401.906173,91.4663555 C403.737037,91.9095654 405.840741,91.1379604 406.82716,89.5330222 C407.967901,87.6774666 407.322222,84.9540098 405.471605,83.8070962 C403.619753,82.6601826 400.893827,83.2947505 399.739506,85.1416641 C400.159259,82.8317876 402.632099,81.2046271 404.969136,81.4317876 C407.307407,81.6601826 409.314815,83.4959851 410.080247,85.7157382 C411.1,88.6725283 410.050617,92.0959851 407.907407,94.3749975 C405.120988,97.339195 400.748148,98.5836394 396.769136,98.4898123 C388.490123,98.293516 381.871605,93.093516 377.697531,86.3675901 C376.462963,84.3095654 375.435802,82.1083308 374.562963,79.8268493 C369.079012,64.3861086 371.532099,43.9811703 384.925926,33.947837 C385.440741,33.6058617 385.964198,33.276232 386.504938,32.9700592 C387.454321,32.4317876 388.441975,31.9317876 389.459259,31.4712938 C396.396296,30.976232 403.480247,29.9033925 410.864198,28.3490715 C419.006173,29.647837 426.183951,34.1601826 429.380247,43.0490715 C424.837037,40.7688246 418.9,42.3379604 415.240741,45.9577135 C411.230864,49.9280839 408.509877,57.8910468 415.112346,66.0688246 C415.601235,66.6737629 416.101235,67.230553 416.606173,67.7675901 C412.408642,69.2441333 408.218519,69.4095654 405.533333,68.0503061 C400.006173,65.2527752 400.380247,60.5725283 402.869136,58.1243802 C405.864198,55.1712938 410.301235,57.5194419 408.432099,61.3638864 C409.938272,62.6120345 410.576543,60.6873431 410.625926,60.3651209 C411.217284,56.2910468 406.77037,54.3577135 403.350617,54.6996888 C398.611111,55.1737629 395.930864,60.4885777 396.923457,64.830553 C398.461728,71.5589481 406.323457,75.3268493 412.744444,74.8330222 C415.623457,74.6107999 418.818519,73.647837 421.880247,72.0404296 C445.1,85.676232 476.059259,43.1058617 440.907407,18.9811703 C446.849383,16.0206765 452.660494,12.5145036 458.560494,9.40339252 C459.646914,9.77993573 470.648148,15.7712938 467.107407,25.4441333 C465.976543,28.5330222 463.164198,31.276232 459.723457,31.4330222 C457.050617,31.5552444 454.317284,30.0046271 452.941975,27.7317876 C451.419753,25.2182073 451.925926,22.1515407 454.416049,20.5404296 C456.201235,19.384874 458.861728,18.993516 460.720988,20.2070962 C461.864198,20.9552444 462.546914,22.3107999 462.57284,23.6737629 C462.020988,21.9626518 460.379012,20.5959851 458.44321,20.8675901 C456.079012,21.1972197 455.071605,24.0033925 455.822222,26.0589481 C456.707407,28.4811703 459.72963,28.9046271 461.67037,27.4466024 C462.518519,26.8095654 463.046914,25.9083308 463.280247,24.9280839 C463.320988,24.8799357 463.353086,24.8194419 463.365432,24.7367259 C464.153086,19.4256147 458.169136,16.2527752 453.891358,19.221911 C450.045679,21.8922814 449.945679,27.2836394 452.706173,30.7428987 C455.706173,34.502158 460.844444,35.184874 464.962963,32.8824049 C469.571605,30.3058617 471.487654,24.9083308 470.498765,19.8577135 C469.458025,14.5404296 465.844444,10.0959851 461.058025,7.89845425 C464.261728,6.27376289 467.060494,5.22931845 470.366667,4.05524438 C480.051852,0.615738203 492.218519,-0.362039575 500.408642,7.00586166 C507.675309,13.5428987 510.748148,25.1293184 506.037037,33.9898123 C503.739506,38.3107999 499.75679,41.3700592 495.2,43.0268493 C483.954321,47.1169728 478.255556,35.1132691 482.953086,36.7996888 C489.712346,40.2009234 495.918519,33.1330222 492.644444,25.984874 C489.748148,19.6787012 477.64321,18.6194419 475.451852,30.6749975 C473.307407,42.4552444 486.812346,48.1564789 496.393827,44.8206765 C506.095062,41.4428987 512.383951,30.6293184 510.92716,20.5354913 C510.134568,15.0441333 507.354321,10.2428987 503.361728,6.68240487" id="Fill-1"></path>
                </g>
            </g>
        </g>
    </g>
</svg>